<svg class="main-svg" xmlns="http://www.w3.org/2000/svg" xmlns:xlink="http://www.w3.org/1999/xlink" width="700" height="500"><rect x="0" y="0" width="700" height="500" style="fill: rgb(255, 255, 255); fill-opacity: 1;"/><defs id="defs-69131b"><g class="gradients"/><g class="clips"><clipPath class="axesclip" id="clip69131bx"><rect x="80" y="0" width="418" height="500"/></clipPath><clipPath class="axesclip" id="clip69131by"><rect x="0" y="100" width="700" height="320"/></clipPath><clipPath class="axesclip" id="clip69131bxy"><rect x="80" y="100" width="418" height="320"/></clipPath><clipPath class="plotclip" id="clip69131bxyplot"><rect width="418" height="320"/></clipPath></g></defs><g class="bglayer"><rect class="bg" x="80" y="100" width="418" height="320" style="fill: rgb(255, 255, 255); fill-opacity: 1; stroke-width: 0px;"/></g><g class="layer-below"><g class="imagelayer"/><g class="shapelayer"/></g><g class="cartesianlayer"><g class="subplot xy"><g class="layer-subplot"><g class="shapelayer"/><g class="imagelayer"/></g><g class="gridlayer" transform="translate(80,100)"/><g class="overgrid"/><g class="zerolinelayer" transform="translate(80,100)"><path class="xzl zl crisp" d="M0,0v320" transform="translate(35.75,0)" style="stroke: rgb(68, 68, 68); stroke-opacity: 1; stroke-width: 1px;"/><path class="yzl zl crisp" d="M0,0h418" transform="translate(0,295.25)" style="stroke: rgb(68, 68, 68); stroke-opacity: 1; stroke-width: 1px;"/></g><g class="overzero"/><path class="xlines-below"/><path class="ylines-below"/><g class="overlines-below"/><g class="xaxislayer-below"/><g class="yaxislayer-below"/><g class="overaxes-below"/><g class="plot" transform="translate(80, 100)" clip-path="url(#clip69131bxyplot)"><g class="imagelayer"/><g class="maplayer"/><g class="barlayer"/><g class="carpetlayer"/><g class="boxlayer"/><g class="scatterlayer"><g class="trace scatter trace5a1060" style="stroke-miterlimit: 2; opacity: 1;"><path class="js-line" d="M35.79,295.22L36.96,289.79L37.24,286.99L39.27,256.16L39.43,253.36L44.14,183.28L44.43,180.49L47.25,160.95L47.85,158.18L50.34,149.97L51.58,147.31L55.42,142.5L58.47,140.82L62.12,140.06L65.94,140.08L77.05,142.16L80.64,143.14L101.69,149.95L105.15,151.17L135.75,162.87L139.1,164.25L165.3,175.94L168.48,177.5L186.99,187.48L189.94,189.27L201.06,196.92L203.57,198.97L207.89,203.38L207.89,203.37" style="vector-effect: non-scaling-stroke; fill: none; stroke: rgb(31, 119, 180); stroke-opacity: 1; stroke-width: 2px; opacity: 1;"/><path class="js-line" d="M49.03,295.22L102.75,294.26L106.59,294.11L137.18,292.14L140.99,291.76L159.84,289.14L163.56,288.42L177.96,284.56L181.38,283.28L190.87,278.54L193.69,276.63L200.84,270.05L202.76,267.62L207.28,259.89L208.42,257.21L210.97,249L211.58,246.23L213.01,235.06L213.16,232.26L212.9,221.05L212.62,218.25L212.23,215.46" style="vector-effect: non-scaling-stroke; fill: none; stroke: rgb(31, 119, 180); stroke-opacity: 1; stroke-width: 2px; opacity: 1;"/><path class="js-line" d="M168.25,295.22L221.93,294.61L225.03,293.34L225.68,287.86L225.5,285.06L222.6,259.92L222.21,257.13L217.94,232.07L217.34,229.3L215.34,221.02" style="vector-effect: non-scaling-stroke; fill: none; stroke: rgb(31, 119, 180); stroke-opacity: 1; stroke-width: 2px; opacity: 1;"/><path class="js-line" d="M35.79,198.45L36.12,128.4L36.74,128.28L45.48,130.75L48.97,131.85L59.45,135.23" style="vector-effect: non-scaling-stroke; fill: none; stroke: rgb(31, 119, 180); stroke-opacity: 1; stroke-width: 2px; opacity: 1;"/><path class="js-line" d="M300.71,295.22L231.58,295.02L228.05,294.42" style="vector-effect: non-scaling-stroke; fill: none; stroke: rgb(31, 119, 180); stroke-opacity: 1; stroke-width: 2px; opacity: 1;"/><path class="js-line" d="M35.79,62.96L35.86,124.7" style="vector-effect: non-scaling-stroke; fill: none; stroke: rgb(31, 119, 180); stroke-opacity: 1; stroke-width: 2px; opacity: 1;"/><path class="js-line" d="M393.43,295.22L308.92,295.22" style="vector-effect: non-scaling-stroke; fill: none; stroke: rgb(31, 119, 180); stroke-opacity: 1; stroke-width: 2px; opacity: 1;"/><path class="js-line" d="M45.15,290.37L50.7,283.02L52.24,280.45L58.86,267.28L60.05,264.61L85.77,205.81L87.19,203.21L95.32,190.5L97.22,188.06L103.72,181.12L106.22,178.99L111.86,175.18L115.01,173.59L121.96,171.23L125.67,170.53L133.31,170.07" style="vector-effect: non-scaling-stroke; fill: none; stroke: rgb(31, 119, 180); stroke-opacity: 1; stroke-width: 2px; opacity: 1;"/><path class="js-line" d="M48.91,18.64L50.71,69.13L50.88,71.94L53.17,97.14L53.57,99.93L56.45,113.8L57.31,116.53L60.92,124.52" style="vector-effect: non-scaling-stroke; fill: none; stroke: rgb(31, 119, 180); stroke-opacity: 1; stroke-width: 2px; opacity: 1;"/><path class="js-line" d="M414.36,285.53L329.85,285.01L326.02,284.92L287.68,283.19L283.87,282.88L264.97,280.42L261.27,279.67L250.61,276.5L247.32,275.06L241.37,271.52L238.8,269.45L234.45,264.83L232.64,262.35L228.26,254.58" style="vector-effect: non-scaling-stroke; fill: none; stroke: rgb(31, 119, 180); stroke-opacity: 1; stroke-width: 2px; opacity: 1;"/><path class="js-line" d="M56.62,289.33L64.89,283.49L67.38,281.35L76.36,272.25L78.43,269.88L89.89,255.28L91.7,252.81L120.85,213.28L122.88,210.9L131.68,201.71L134.1,199.52L142.06,193.44L145,191.64L151.38,188.53L154.84,187.31L162.19,185.74L166.01,185.44L173.64,185.84" style="vector-effect: non-scaling-stroke; fill: none; stroke: rgb(31, 119, 180); stroke-opacity: 1; stroke-width: 2px; opacity: 1;"/><path class="js-line" d="M62.06,18.64L64.54,63.5L64.78,66.3L67.74,91.47L68.21,94.25L71.25,108.1L72.06,110.85L76.27,121.64L77.65,124.26L82.83,131.76L84.94,134.11" style="vector-effect: non-scaling-stroke; fill: none; stroke: rgb(31, 119, 180); stroke-opacity: 1; stroke-width: 2px; opacity: 1;"/><path class="js-line" d="M414.36,275.79L345.22,275.84L341.38,275.78L303.02,274.35L299.2,274.09L276.42,271.58L272.67,270.95L258.12,267.39L254.67,266.17L245.09,261.51L242.25,259.63" style="vector-effect: non-scaling-stroke; fill: none; stroke: rgb(31, 119, 180); stroke-opacity: 1; stroke-width: 2px; opacity: 1;"/><path class="js-line" d="M69.09,288.6L78.6,283.86L81.58,282.09L92.65,274.32L95.23,272.24L107.29,261.33L109.56,259.06L126.79,240.47L128.87,238.12L150.32,214.84L152.64,212.6L162.62,204.08L165.37,202.11L174.51,197.02L177.92,195.74L185.3,194.27" style="vector-effect: non-scaling-stroke; fill: none; stroke: rgb(31, 119, 180); stroke-opacity: 1; stroke-width: 2px; opacity: 1;"/><path class="js-line" d="M75.25,18.64L78.04,60.69L78.31,63.49L81.55,88.63L82.04,91.41L85.84,108.02L86.67,110.76L90.79,121.57L92.08,124.21" style="vector-effect: non-scaling-stroke; fill: none; stroke: rgb(31, 119, 180); stroke-opacity: 1; stroke-width: 2px; opacity: 1;"/><path class="js-line" d="M48.31,268.95L66.37,200.05L67.31,197.33L72.79,183.88L74.11,181.25L78.74,173.54L80.59,171.08L84.95,166.47L87.53,164.39L93.65,161.04L97.15,159.89L104.66,158.8L108.5,158.8" style="vector-effect: non-scaling-stroke; fill: none; stroke: rgb(31, 119, 180); stroke-opacity: 1; stroke-width: 2px; opacity: 1;"/><path class="js-line" d="M414.35,266L352.91,266.9L349.07,266.89L314.51,266.22L310.68,266.04L287.76,264.33L283.96,263.89" style="vector-effect: non-scaling-stroke; fill: none; stroke: rgb(31, 119, 180); stroke-opacity: 1; stroke-width: 2px; opacity: 1;"/><path class="js-line" d="M85.4,286.88L98.49,281.03L101.58,279.37L113.27,272.09L116.03,270.14L128.98,259.78L131.42,257.62L147.54,241.89L149.74,239.6L178.75,209.91L181.27,207.8L186.7,203.83" style="vector-effect: non-scaling-stroke; fill: none; stroke: rgb(31, 119, 180); stroke-opacity: 1; stroke-width: 2px; opacity: 1;"/><path class="js-line" d="M88.47,18.64L91.22,57.88L91.49,60.68L94.7,85.83" style="vector-effect: non-scaling-stroke; fill: none; stroke: rgb(31, 119, 180); stroke-opacity: 1; stroke-width: 2px; opacity: 1;"/><path class="js-line" d="M414.34,256.17L352.95,258.22L349.11,258.28L310.7,258.04L306.87,257.9L283.94,256.28L280.14,255.83L265.19,253.3L261.54,252.42L250.99,249.05L247.66,247.65L238.53,242.54L235.82,240.56L228.69,233.96" style="vector-effect: non-scaling-stroke; fill: none; stroke: rgb(31, 119, 180); stroke-opacity: 1; stroke-width: 2px; opacity: 1;"/><path class="js-line" d="M101.72,18.64L104.2,55.08L104.46,57.88L107.85,85.83L108.3,88.62L112.3,108.04L113.03,110.8L117.55,124.43L118.67,127.12L124.03,137.63L125.63,140.18L133.22,149.93L135.41,152.23L137.72,154.48" style="vector-effect: non-scaling-stroke; fill: none; stroke: rgb(31, 119, 180); stroke-opacity: 1; stroke-width: 2px; opacity: 1;"/><path class="js-line" d="M414.32,246.3L356.89,249.69L353.06,249.85L314.67,250.69L310.83,250.67L287.81,249.85L283.99,249.56L268.83,247.77" style="vector-effect: non-scaling-stroke; fill: none; stroke: rgb(31, 119, 180); stroke-opacity: 1; stroke-width: 2px; opacity: 1;"/><path class="js-line" d="M111.71,286.61L125.64,281.89L128.99,280.51L141.74,274.27L144.75,272.53L156.06,264.94L158.7,262.9L168.54,254.28L170.82,252.02L181.35,240.29L183.29,237.87L194.03,222.97L195.7,220.45L200.59,212.83" style="vector-effect: non-scaling-stroke; fill: none; stroke: rgb(31, 119, 180); stroke-opacity: 1; stroke-width: 2px; opacity: 1;"/><path class="js-line" d="M114.98,18.64L117.78,60.69L118.04,63.49L120.65,85.86" style="vector-effect: non-scaling-stroke; fill: none; stroke: rgb(31, 119, 180); stroke-opacity: 1; stroke-width: 2px; opacity: 1;"/><path class="js-line" d="M128.27,18.64L130.91,63.5L131.14,66.3L134.27,94.27L134.68,97.06L138.35,116.52L139.02,119.28L143.07,133L144.05,135.71L148.76,146.39L150.16,149.01L156.76,159.13L158.68,161.56L167.41,170.79L169.82,172.97" style="vector-effect: non-scaling-stroke; fill: none; stroke: rgb(31, 119, 180); stroke-opacity: 1; stroke-width: 2px; opacity: 1;"/><path class="js-line" d="M418,225.92L365.03,232.68L361.23,233.11L319.31,236.94L315.48,237.19L288.63,238.14L284.79,238.13L265.64,237.18L261.84,236.76L250.64,234.82L247.01,233.9L236.69,230.19L233.52,228.61L230.51,226.87" style="vector-effect: non-scaling-stroke; fill: none; stroke: rgb(31, 119, 180); stroke-opacity: 1; stroke-width: 2px; opacity: 1;"/><path class="js-line" d="M141.58,18.64L143.45,60.71L143.62,63.52L146.32,94.32" style="vector-effect: non-scaling-stroke; fill: none; stroke: rgb(31, 119, 180); stroke-opacity: 1; stroke-width: 2px; opacity: 1;"/><path class="js-line" d="M154.9,18.64L156.49,69.14L156.63,71.94L159.21,105.57L159.52,108.36L162.87,130.68L163.43,133.46L167.76,149.99L168.69,152.71L173.21,163.44" style="vector-effect: non-scaling-stroke; fill: none; stroke: rgb(31, 119, 180); stroke-opacity: 1; stroke-width: 2px; opacity: 1;"/><path class="js-line" d="M417.68,205.64L366.06,216.64L362.35,217.36L324.99,223.86L321.22,224.43L290.91,228.1L287.1,228.41L267.93,229.25L264.09,229.22L248.82,228.1L245.08,227.49L241.38,226.71" style="vector-effect: non-scaling-stroke; fill: none; stroke: rgb(31, 119, 180); stroke-opacity: 1; stroke-width: 2px; opacity: 1;"/><path class="js-line" d="M168.23,18.64L169.18,80.37L169.28,83.18L171.06,114.02" style="vector-effect: non-scaling-stroke; fill: none; stroke: rgb(31, 119, 180); stroke-opacity: 1; stroke-width: 2px; opacity: 1;"/><path class="js-line" d="M181.58,18.64L181.12,83.18L181.14,85.99L182.07,122.47L182.22,125.27L184.11,147.68L184.47,150.47L186.91,164.39L187.56,167.15L190.99,178.09L192.09,180.78L193.33,183.43" style="vector-effect: non-scaling-stroke; fill: none; stroke: rgb(31, 119, 180); stroke-opacity: 1; stroke-width: 2px; opacity: 1;"/><path class="js-line" d="M417.15,185.27L374.93,198.77L371.38,199.83L335.45,209.76L331.82,210.67L302.46,217.3L298.75,218.03L276.25,221.63L272.45,222.07L268.65,222.46" style="vector-effect: non-scaling-stroke; fill: none; stroke: rgb(31, 119, 180); stroke-opacity: 1; stroke-width: 2px; opacity: 1;"/><path class="js-line" d="M194.94,18.64L192.17,116.84L192.14,119.65L192.75,153.32L192.92,156.12L193.63,164.53" style="vector-effect: non-scaling-stroke; fill: none; stroke: rgb(31, 119, 180); stroke-opacity: 1; stroke-width: 2px; opacity: 1;"/><path class="js-line" d="M208.3,18.64L201.43,133.6" style="vector-effect: non-scaling-stroke; fill: none; stroke: rgb(31, 119, 180); stroke-opacity: 1; stroke-width: 2px; opacity: 1;"/><path class="js-line" d="M416.42,164.92L380.3,180.93L376.96,182.32L343.05,195.5L339.61,196.74L308.08,207.09L304.52,208.14L286.47,212.95" style="vector-effect: non-scaling-stroke; fill: none; stroke: rgb(31, 119, 180); stroke-opacity: 1; stroke-width: 2px; opacity: 1;"/><path class="js-line" d="M221.68,18.65L215.7,85.86L215.42,88.66L214.85,94.26" style="vector-effect: non-scaling-stroke; fill: none; stroke: rgb(31, 119, 180); stroke-opacity: 1; stroke-width: 2px; opacity: 1;"/><path class="js-line" d="M235.07,18.65L228.17,77.37" style="vector-effect: non-scaling-stroke; fill: none; stroke: rgb(31, 119, 180); stroke-opacity: 1; stroke-width: 2px; opacity: 1;"/><path class="js-line" d="M415.54,144.68L385.56,162.22L382.49,163.91L351.12,180.09L347.91,181.63L321.72,193.37L318.38,194.76L297.99,202.61" style="vector-effect: non-scaling-stroke; fill: none; stroke: rgb(31, 119, 180); stroke-opacity: 1; stroke-width: 2px; opacity: 1;"/><path class="js-line" d="M261.86,18.67L254.1,63.22L253.56,66L245.14,104.8L244.47,107.56L236.28,137.85L235.45,140.59L227.16,165.11L226.14,167.81L218.16,186.57L216.88,189.21L215.55,191.85" style="vector-effect: non-scaling-stroke; fill: none; stroke: rgb(31, 119, 180); stroke-opacity: 1; stroke-width: 2px; opacity: 1;"/><path class="js-line" d="M417.24,122.55L390.39,142.62L387.63,144.57L362.04,161.55L359.12,163.37L341.24,174" style="vector-effect: non-scaling-stroke; fill: none; stroke: rgb(31, 119, 180); stroke-opacity: 1; stroke-width: 2px; opacity: 1;"/><path class="js-line" d="M288.67,18.71L279.55,57.43L278.83,60.18L270.29,90.42L269.45,93.15L260.23,120.4L259.22,123.11L249.28,147.29L248.06,149.96L238.78,168.39L237.33,170.99L229.45,183.78" style="vector-effect: non-scaling-stroke; fill: none; stroke: rgb(31, 119, 180); stroke-opacity: 1; stroke-width: 2px; opacity: 1;"/><path class="js-line" d="M416.04,102.45L394.61,122.27L392.15,124.42L369.24,143.33L366.61,145.38L355.9,153.43" style="vector-effect: non-scaling-stroke; fill: none; stroke: rgb(31, 119, 180); stroke-opacity: 1; stroke-width: 2px; opacity: 1;"/><path class="js-line" d="M316.26,16L305.66,51.65L304.77,54.38L294.26,84.28L293.23,86.98L282.05,113.83L280.84,116.49L268.99,140.22L267.56,142.83L256.77,160.82L255.11,163.35L244.33,178.23L242.38,180.64" style="vector-effect: non-scaling-stroke; fill: none; stroke: rgb(31, 119, 180); stroke-opacity: 1; stroke-width: 2px; opacity: 1;"/><path class="js-line" d="M416.98,80.15L395.97,103.64L393.78,105.95L373.31,126.3L370.94,128.51L363.74,135.08" style="vector-effect: non-scaling-stroke; fill: none; stroke: rgb(31, 119, 180); stroke-opacity: 1; stroke-width: 2px; opacity: 1;"/><path class="js-line" d="M343.27,16.09L331.41,48.63L330.35,51.33L317.83,80.81L316.6,83.47L304.86,107.22L303.47,109.84L291.6,130.55L290.01,133.1L276.42,153.23L274.59,155.7L262.95,170.23L260.89,172.6L254.44,179.57" style="vector-effect: non-scaling-stroke; fill: none; stroke: rgb(31, 119, 180); stroke-opacity: 1; stroke-width: 2px; opacity: 1;"/><path class="js-line" d="M416.92,47.88L399.56,72.91L397.74,75.38L380.67,97.34L378.69,99.75L360.07,121.03L357.91,123.35L337.53,143.75L335.16,145.95L317.93,161.03L315.37,163.13L296.76,177.3L293.99,179.24L276.73,190.4L273.74,192.16L258.19,200.38L254.94,201.88L241.39,207.16L237.84,208.22L226.7,210.24L222.87,210.3L215.58,208.84" style="vector-effect: non-scaling-stroke; fill: none; stroke: rgb(31, 119, 180); stroke-opacity: 1; stroke-width: 2px; opacity: 1;"/><path class="js-line" d="M370.28,16.19L357.52,45.62L356.29,48.28L341.84,77.29L340.44,79.9L327.08,103.2L325.51,105.76L312.2,125.99L310.44,128.49L295.5,148.1" style="vector-effect: non-scaling-stroke; fill: none; stroke: rgb(31, 119, 180); stroke-opacity: 1; stroke-width: 2px; opacity: 1;"/><path class="js-line" d="M397.29,16.32L381.2,47.87L379.77,50.48L364.76,76.31L363.18,78.87L348.17,101.62L346.42,104.12L329.73,126.23L327.77,128.65L311.28,147.59L309.11,149.9" style="vector-effect: non-scaling-stroke; fill: none; stroke: rgb(31, 119, 180); stroke-opacity: 1; stroke-width: 2px; opacity: 1;"/><path class="js-line" d="M83.1,237.91L96.32,214.58L97.93,212.03L106.78,199.58L108.76,197.18L115.35,190.27L117.8,188.11L126.15,182.34L129.32,180.75L136.21,178.3L139.89,177.5L147.5,176.84L151.33,176.95L158.89,177.91" style="vector-effect: non-scaling-stroke; fill: none; stroke: rgb(31, 119, 180); stroke-opacity: 1; stroke-width: 2px; opacity: 1;"/><path class="js-line" d="M154.61,279.9L167.21,273.5L170.12,271.67L178.2,265.67L180.66,263.52L189.36,254.28L191.26,251.84L197.83,241.69L199.23,239.08L200.54,236.45" style="vector-effect: non-scaling-stroke; fill: none; stroke: rgb(31, 119, 180); stroke-opacity: 1; stroke-width: 2px; opacity: 1;"/><path class="js-line" d="M221.6,98.88L214.2,149.1L213.74,151.89L207.43,190.9" style="vector-effect: non-scaling-stroke; fill: none; stroke: rgb(31, 119, 180); stroke-opacity: 1; stroke-width: 2px; opacity: 1;"/><path class="js-line" d="M297.91,157.02L281.67,172.67L279.22,174.83L263.74,187.3L261.02,189.28L246.62,198.55L243.55,200.25L240.41,201.86" style="vector-effect: non-scaling-stroke; fill: none; stroke: rgb(31, 119, 180); stroke-opacity: 1; stroke-width: 2px; opacity: 1;"/><path class="js-line" d="M90.61,148.27L98.22,148.75L92.81,144.8" style="vector-effect: non-scaling-stroke; fill: none; stroke: rgb(31, 119, 180); stroke-opacity: 1; stroke-width: 2px; opacity: 1;"/><path class="js-line" d="M122.67,295.21L129.56,292.79L122.15,291.41" style="vector-effect: non-scaling-stroke; fill: none; stroke: rgb(31, 119, 180); stroke-opacity: 1; stroke-width: 2px; opacity: 1;"/><path class="js-line" d="M215.06,297.06L221.93,294.61L214.51,293.26" style="vector-effect: non-scaling-stroke; fill: none; stroke: rgb(31, 119, 180); stroke-opacity: 1; stroke-width: 2px; opacity: 1;"/><path class="js-line" d="M38.42,172.82L35.81,167.57L33.19,172.82" style="vector-effect: non-scaling-stroke; fill: none; stroke: rgb(31, 119, 180); stroke-opacity: 1; stroke-width: 2px; opacity: 1;"/><path class="js-line" d="M281,293.31L273.82,295.21L281,297.13" style="vector-effect: non-scaling-stroke; fill: none; stroke: rgb(31, 119, 180); stroke-opacity: 1; stroke-width: 2px; opacity: 1;"/><path class="js-line" d="M33.18,80.16L35.79,85.41L38.41,80.16" style="vector-effect: non-scaling-stroke; fill: none; stroke: rgb(31, 119, 180); stroke-opacity: 1; stroke-width: 2px; opacity: 1;"/><path class="js-line" d="M369.88,293.31L362.7,295.22L369.88,297.13" style="vector-effect: non-scaling-stroke; fill: none; stroke: rgb(31, 119, 180); stroke-opacity: 1; stroke-width: 2px; opacity: 1;"/><path class="js-line" d="M68.38,251.4L67.93,245.83L63.37,250.31" style="vector-effect: non-scaling-stroke; fill: none; stroke: rgb(31, 119, 180); stroke-opacity: 1; stroke-width: 2px; opacity: 1;"/><path class="js-line" d="M47.19,49.92L50.02,55.11L52.42,49.81" style="vector-effect: non-scaling-stroke; fill: none; stroke: rgb(31, 119, 180); stroke-opacity: 1; stroke-width: 2px; opacity: 1;"/><path class="js-line" d="M352.44,283.45L345.22,285.27L352.35,287.27" style="vector-effect: non-scaling-stroke; fill: none; stroke: rgb(31, 119, 180); stroke-opacity: 1; stroke-width: 2px; opacity: 1;"/><path class="js-line" d="M92.45,255.86L93.5,250.32L87.83,254.07" style="vector-effect: non-scaling-stroke; fill: none; stroke: rgb(31, 119, 180); stroke-opacity: 1; stroke-width: 2px; opacity: 1;"/><path class="js-line" d="M61.13,52.76L64.11,57.9L66.35,52.56" style="vector-effect: non-scaling-stroke; fill: none; stroke: rgb(31, 119, 180); stroke-opacity: 1; stroke-width: 2px; opacity: 1;"/><path class="js-line" d="M360.11,274.09L352.9,275.94L360.05,277.91" style="vector-effect: non-scaling-stroke; fill: none; stroke: rgb(31, 119, 180); stroke-opacity: 1; stroke-width: 2px; opacity: 1;"/><path class="js-line" d="M109.74,262.16L111.8,256.78L105.49,259.94" style="vector-effect: non-scaling-stroke; fill: none; stroke: rgb(31, 119, 180); stroke-opacity: 1; stroke-width: 2px; opacity: 1;"/><path class="js-line" d="M74.51,49.96L77.55,55.08L79.73,49.73" style="vector-effect: non-scaling-stroke; fill: none; stroke: rgb(31, 119, 180); stroke-opacity: 1; stroke-width: 2px; opacity: 1;"/><path class="js-line" d="M59.78,233.02L58.51,227.51L54.64,232.33" style="vector-effect: non-scaling-stroke; fill: none; stroke: rgb(31, 119, 180); stroke-opacity: 1; stroke-width: 2px; opacity: 1;"/><path class="js-line" d="M375.42,264.85L368.27,266.83L375.49,268.67" style="vector-effect: non-scaling-stroke; fill: none; stroke: rgb(31, 119, 180); stroke-opacity: 1; stroke-width: 2px; opacity: 1;"/><path class="js-line" d="M123.72,267.12L126.49,261.92L119.79,264.6" style="vector-effect: non-scaling-stroke; fill: none; stroke: rgb(31, 119, 180); stroke-opacity: 1; stroke-width: 2px; opacity: 1;"/><path class="js-line" d="M86.86,35.93L89.84,41.07L92.08,35.73" style="vector-effect: non-scaling-stroke; fill: none; stroke: rgb(31, 119, 180); stroke-opacity: 1; stroke-width: 2px; opacity: 1;"/><path class="js-line" d="M356.24,256.26L349.11,258.28L356.35,260.08" style="vector-effect: non-scaling-stroke; fill: none; stroke: rgb(31, 119, 180); stroke-opacity: 1; stroke-width: 2px; opacity: 1;"/><path class="js-line" d="M102.15,61.19L105.31,66.28L107.36,60.9" style="vector-effect: non-scaling-stroke; fill: none; stroke: rgb(31, 119, 180); stroke-opacity: 1; stroke-width: 2px; opacity: 1;"/><path class="js-line" d="M371.55,247.07L364.56,249.34L371.91,250.88" style="vector-effect: non-scaling-stroke; fill: none; stroke: rgb(31, 119, 180); stroke-opacity: 1; stroke-width: 2px; opacity: 1;"/><path class="js-line" d="M146.94,273.77L150.56,268.85L143.46,270.92" style="vector-effect: non-scaling-stroke; fill: none; stroke: rgb(31, 119, 180); stroke-opacity: 1; stroke-width: 2px; opacity: 1;"/><path class="js-line" d="M113.3,35.92L116.26,41.07L118.53,35.74" style="vector-effect: non-scaling-stroke; fill: none; stroke: rgb(31, 119, 180); stroke-opacity: 1; stroke-width: 2px; opacity: 1;"/><path class="js-line" d="M128.55,66.79L131.65,71.9L133.77,66.54" style="vector-effect: non-scaling-stroke; fill: none; stroke: rgb(31, 119, 180); stroke-opacity: 1; stroke-width: 2px; opacity: 1;"/><path class="js-line" d="M360.36,231.28L353.63,233.92L361.11,235.06" style="vector-effect: non-scaling-stroke; fill: none; stroke: rgb(31, 119, 180); stroke-opacity: 1; stroke-width: 2px; opacity: 1;"/><path class="js-line" d="M139.69,38.7L142.54,43.89L144.91,38.58" style="vector-effect: non-scaling-stroke; fill: none; stroke: rgb(31, 119, 180); stroke-opacity: 1; stroke-width: 2px; opacity: 1;"/><path class="js-line" d="M153.62,63.96L156.49,69.14L158.84,63.83" style="vector-effect: non-scaling-stroke; fill: none; stroke: rgb(31, 119, 180); stroke-opacity: 1; stroke-width: 2px; opacity: 1;"/><path class="js-line" d="M364.92,214.89L358.63,218.07L366.24,218.59" style="vector-effect: non-scaling-stroke; fill: none; stroke: rgb(31, 119, 180); stroke-opacity: 1; stroke-width: 2px; opacity: 1;"/><path class="js-line" d="M165.81,47.09L168.5,52.31L171.04,47.04" style="vector-effect: non-scaling-stroke; fill: none; stroke: rgb(31, 119, 180); stroke-opacity: 1; stroke-width: 2px; opacity: 1;"/><path class="js-line" d="M178.47,69.52L181.09,74.76L183.7,69.52" style="vector-effect: non-scaling-stroke; fill: none; stroke: rgb(31, 119, 180); stroke-opacity: 1; stroke-width: 2px; opacity: 1;"/><path class="js-line" d="M373.5,197.15L367.81,200.88L375.45,200.69" style="vector-effect: non-scaling-stroke; fill: none; stroke: rgb(31, 119, 180); stroke-opacity: 1; stroke-width: 2px; opacity: 1;"/><path class="js-line" d="M190.79,63.85L193.24,69.14L196.02,63.94" style="vector-effect: non-scaling-stroke; fill: none; stroke: rgb(31, 119, 180); stroke-opacity: 1; stroke-width: 2px; opacity: 1;"/><path class="js-line" d="M203.71,52.57L206,57.9L208.93,52.74" style="vector-effect: non-scaling-stroke; fill: none; stroke: rgb(31, 119, 180); stroke-opacity: 1; stroke-width: 2px; opacity: 1;"/><path class="js-line" d="M378.59,179.46L373.61,183.7L381.16,182.79" style="vector-effect: non-scaling-stroke; fill: none; stroke: rgb(31, 119, 180); stroke-opacity: 1; stroke-width: 2px; opacity: 1;"/><path class="js-line" d="M217.43,38.5L219.59,43.86L222.65,38.74" style="vector-effect: non-scaling-stroke; fill: none; stroke: rgb(31, 119, 180); stroke-opacity: 1; stroke-width: 2px; opacity: 1;"/><path class="js-line" d="M230.92,32.85L232.95,38.24L236.14,33.16" style="vector-effect: non-scaling-stroke; fill: none; stroke: rgb(31, 119, 180); stroke-opacity: 1; stroke-width: 2px; opacity: 1;"/><path class="js-line" d="M380.55,162.6L376.32,167.25L383.65,165.67" style="vector-effect: non-scaling-stroke; fill: none; stroke: rgb(31, 119, 180); stroke-opacity: 1; stroke-width: 2px; opacity: 1;"/><path class="js-line" d="M249.8,71.63L251.32,77.1L254.98,72.2" style="vector-effect: non-scaling-stroke; fill: none; stroke: rgb(31, 119, 180); stroke-opacity: 1; stroke-width: 2px; opacity: 1;"/><path class="js-line" d="M396.42,135.62L393.14,140.66L400.1,138.34" style="vector-effect: non-scaling-stroke; fill: none; stroke: rgb(31, 119, 180); stroke-opacity: 1; stroke-width: 2px; opacity: 1;"/><path class="js-line" d="M273.22,71.17L274.34,76.7L278.35,71.94" style="vector-effect: non-scaling-stroke; fill: none; stroke: rgb(31, 119, 180); stroke-opacity: 1; stroke-width: 2px; opacity: 1;"/><path class="js-line" d="M399.57,114.83L397.06,120.1L403.62,117.24" style="vector-effect: non-scaling-stroke; fill: none; stroke: rgb(31, 119, 180); stroke-opacity: 1; stroke-width: 2px; opacity: 1;"/><path class="js-line" d="M297.54,67.88L298.26,73.44L302.6,68.84" style="vector-effect: non-scaling-stroke; fill: none; stroke: rgb(31, 119, 180); stroke-opacity: 1; stroke-width: 2px; opacity: 1;"/><path class="js-line" d="M402.13,93.58L400.3,99.01L406.48,95.71" style="vector-effect: non-scaling-stroke; fill: none; stroke: rgb(31, 119, 180); stroke-opacity: 1; stroke-width: 2px; opacity: 1;"/><path class="js-line" d="M321.09,67.23L321.41,72.81L326.08,68.38" style="vector-effect: non-scaling-stroke; fill: none; stroke: rgb(31, 119, 180); stroke-opacity: 1; stroke-width: 2px; opacity: 1;"/><path class="js-line" d="M368.15,108.57L366.44,114.01L372.54,110.64" style="vector-effect: non-scaling-stroke; fill: none; stroke: rgb(31, 119, 180); stroke-opacity: 1; stroke-width: 2px; opacity: 1;"/><path class="js-line" d="M349.9,55.94L349.93,61.52L354.82,57.23" style="vector-effect: non-scaling-stroke; fill: none; stroke: rgb(31, 119, 180); stroke-opacity: 1; stroke-width: 2px; opacity: 1;"/><path class="js-line" d="M372.83,57.87L372.45,63.45L377.65,59.36" style="vector-effect: non-scaling-stroke; fill: none; stroke: rgb(31, 119, 180); stroke-opacity: 1; stroke-width: 2px; opacity: 1;"/><path class="js-line" d="M98.85,215.05L99.58,209.49L94.13,213.41" style="vector-effect: non-scaling-stroke; fill: none; stroke: rgb(31, 119, 180); stroke-opacity: 1; stroke-width: 2px; opacity: 1;"/><path class="js-line" d="M172.45,272.83L175.62,267.75L168.72,270.15" style="vector-effect: non-scaling-stroke; fill: none; stroke: rgb(31, 119, 180); stroke-opacity: 1; stroke-width: 2px; opacity: 1;"/><path class="js-line" d="M215.45,124.16L217.27,129.58L220.65,124.58" style="vector-effect: non-scaling-stroke; fill: none; stroke: rgb(31, 119, 180); stroke-opacity: 1; stroke-width: 2px; opacity: 1;"/><path class="js-line" d="M281.79,169.57L279.22,174.83L285.81,172.01" style="vector-effect: non-scaling-stroke; fill: none; stroke: rgb(31, 119, 180); stroke-opacity: 1; stroke-width: 2px; opacity: 1;"/><g class="points"/></g><g class="trace scatter trace3b6d81" style="stroke-miterlimit: 2; opacity: 1;"><g class="points"><path class="point" transform="translate(207.97,203.18)" d="M7,0A7,7 0 1,1 0,-7A7,7 0 0,1 7,0Z" style="opacity: 1; stroke-width: 0px; fill: rgb(255, 127, 14); fill-opacity: 1;"/></g></g><g class="trace scatter tracef2fccf" style="stroke-miterlimit: 2; opacity: 1;"><g class="points"><path class="point" transform="translate(35.75,127.68)" d="M7,0A7,7 0 1,1 0,-7A7,7 0 0,1 7,0Z" style="opacity: 1; stroke-width: 0px; fill: rgb(44, 160, 44); fill-opacity: 1;"/></g></g><g class="trace scatter trace235da6" style="stroke-miterlimit: 2; opacity: 1;"><g class="points"><path class="point" transform="translate(226.88,295.25)" d="M7,0A7,7 0 1,1 0,-7A7,7 0 0,1 7,0Z" style="opacity: 1; stroke-width: 0px; fill: rgb(214, 39, 40); fill-opacity: 1;"/></g></g><g class="trace scatter trace52ed51" style="stroke-miterlimit: 2; opacity: 1;"><g class="points"><path class="point" transform="translate(35.75,295.25)" d="M7,0A7,7 0 1,1 0,-7A7,7 0 0,1 7,0Z" style="opacity: 1; stroke-width: 0px; fill: rgb(148, 103, 189); fill-opacity: 1;"/></g></g></g></g><g class="overplot"/><path class="xlines-above crisp" transform="translate(80,100)" d="M-1,320.5H418" style="fill: none; stroke-width: 1px; stroke: rgb(0, 0, 0); stroke-opacity: 0;"/><path class="ylines-above crisp" transform="translate(80,100)" d="M-0.5,0V320" style="fill: none; stroke-width: 1px; stroke: rgb(0, 0, 0); stroke-opacity: 0;"/><g class="overlines-above"/><g class="xaxislayer-above" transform="translate(80,100)"><path class="xtick ticks crisp" d="M0,321v5" transform="translate(35.75,0)" style="stroke: rgb(68, 68, 68); stroke-opacity: 1; stroke-width: 1px;"/><path class="xtick ticks crisp" d="M0,321v5" transform="translate(112.2,0)" style="stroke: rgb(68, 68, 68); stroke-opacity: 1; stroke-width: 1px;"/><path class="xtick ticks crisp" d="M0,321v5" transform="translate(188.65,0)" style="stroke: rgb(68, 68, 68); stroke-opacity: 1; stroke-width: 1px;"/><path class="xtick ticks crisp" d="M0,321v5" transform="translate(265.1,0)" style="stroke: rgb(68, 68, 68); stroke-opacity: 1; stroke-width: 1px;"/><path class="xtick ticks crisp" d="M0,321v5" transform="translate(341.55,0)" style="stroke: rgb(68, 68, 68); stroke-opacity: 1; stroke-width: 1px;"/><path class="xtick ticks crisp" d="M0,321v5" transform="translate(418,0)" style="stroke: rgb(68, 68, 68); stroke-opacity: 1; stroke-width: 1px;"/><g class="xtick"><text text-anchor="middle" x="0" y="342.8" transform="translate(35.75,0)" style="font-family: 'Open Sans', verdana, arial, sans-serif; font-size: 14px; fill: rgb(68, 68, 68); fill-opacity: 1; white-space: pre;">0</text></g><g class="xtick"><text text-anchor="middle" x="0" y="342.8" transform="translate(112.2,0)" style="font-family: 'Open Sans', verdana, arial, sans-serif; font-size: 14px; fill: rgb(68, 68, 68); fill-opacity: 1; white-space: pre;">20</text></g><g class="xtick"><text text-anchor="middle" x="0" y="342.8" transform="translate(188.65,0)" style="font-family: 'Open Sans', verdana, arial, sans-serif; font-size: 14px; fill: rgb(68, 68, 68); fill-opacity: 1; white-space: pre;">40</text></g><g class="xtick"><text text-anchor="middle" x="0" y="342.8" transform="translate(265.1,0)" style="font-family: 'Open Sans', verdana, arial, sans-serif; font-size: 14px; fill: rgb(68, 68, 68); fill-opacity: 1; white-space: pre;">60</text></g><g class="xtick"><text text-anchor="middle" x="0" y="342.8" transform="translate(341.55,0)" style="font-family: 'Open Sans', verdana, arial, sans-serif; font-size: 14px; fill: rgb(68, 68, 68); fill-opacity: 1; white-space: pre;">80</text></g><g class="xtick"><text text-anchor="middle" x="0" y="342.8" transform="translate(418,0)" style="font-family: 'Open Sans', verdana, arial, sans-serif; font-size: 14px; fill: rgb(68, 68, 68); fill-opacity: 1; white-space: pre;">100</text></g></g><g class="yaxislayer-above" transform="translate(80,100)"><path class="ytick ticks crisp" d="M0,0h5" transform="translate(0,295.25)" style="stroke: rgb(68, 68, 68); stroke-opacity: 1; stroke-width: 1px;"/><path class="ytick ticks crisp" d="M0,0h5" transform="translate(0,239.39)" style="stroke: rgb(68, 68, 68); stroke-opacity: 1; stroke-width: 1px;"/><path class="ytick ticks crisp" d="M0,0h5" transform="translate(0,183.54)" style="stroke: rgb(68, 68, 68); stroke-opacity: 1; stroke-width: 1px;"/><path class="ytick ticks crisp" d="M0,0h5" transform="translate(0,127.68)" style="stroke: rgb(68, 68, 68); stroke-opacity: 1; stroke-width: 1px;"/><path class="ytick ticks crisp" d="M0,0h5" transform="translate(0,71.83)" style="stroke: rgb(68, 68, 68); stroke-opacity: 1; stroke-width: 1px;"/><path class="ytick ticks crisp" d="M0,0h5" transform="translate(0,15.97)" style="stroke: rgb(68, 68, 68); stroke-opacity: 1; stroke-width: 1px;"/><g class="ytick"><text text-anchor="end" x="-1" y="4.8999999999999995" transform="translate(0,295.25)" style="font-family: 'Open Sans', verdana, arial, sans-serif; font-size: 14px; fill: rgb(68, 68, 68); fill-opacity: 1; white-space: pre;">0</text></g><g class="ytick"><text text-anchor="end" x="-1" y="4.8999999999999995" transform="translate(0,239.39)" style="font-family: 'Open Sans', verdana, arial, sans-serif; font-size: 14px; fill: rgb(68, 68, 68); fill-opacity: 1; white-space: pre;">20</text></g><g class="ytick"><text text-anchor="end" x="-1" y="4.8999999999999995" transform="translate(0,183.54)" style="font-family: 'Open Sans', verdana, arial, sans-serif; font-size: 14px; fill: rgb(68, 68, 68); fill-opacity: 1; white-space: pre;">40</text></g><g class="ytick"><text text-anchor="end" x="-1" y="4.8999999999999995" transform="translate(0,127.68)" style="font-family: 'Open Sans', verdana, arial, sans-serif; font-size: 14px; fill: rgb(68, 68, 68); fill-opacity: 1; white-space: pre;">60</text></g><g class="ytick"><text text-anchor="end" x="-1" y="4.8999999999999995" transform="translate(0,71.83)" style="font-family: 'Open Sans', verdana, arial, sans-serif; font-size: 14px; fill: rgb(68, 68, 68); fill-opacity: 1; white-space: pre;">80</text></g><g class="ytick"><text text-anchor="end" x="-1" y="4.8999999999999995" transform="translate(0,15.97)" style="font-family: 'Open Sans', verdana, arial, sans-serif; font-size: 14px; fill: rgb(68, 68, 68); fill-opacity: 1; white-space: pre;">100</text></g></g><g class="overaxes-above"/></g></g><g class="ternarylayer"/><g class="geolayer"/><g class="layer-above"><g class="imagelayer"/><g class="shapelayer"/></g><g class="pielayer"/><g class="glimages"/><defs id="topdefs-69131b"><clipPath id="legend69131b"><rect width="182" height="168" x="0" y="0"/></clipPath></defs><g class="infolayer"><g class="g-gtitle"><text class="gtitle" x="350" y="50" text-anchor="middle" style="font-family: 'Open Sans', verdana, arial, sans-serif; font-size: 31px; fill: rgb(68, 68, 68); opacity: 1; font-weight: normal; white-space: pre;">Demo: 2x2 Phase Plane with Carry Capacity</text></g><g class="legend" pointer-events="all" transform="translate(506.36, 100)"><rect class="bg" shape-rendering="crispEdges" style="stroke: rgb(68, 68, 68); stroke-opacity: 1; fill: rgb(255, 255, 255); fill-opacity: 1; stroke-width: 0px;" width="182" height="168" x="0" y="0"/><g class="scrollbox" transform="translate(0, 0)" clip-path="url(#legend69131b)"><g class="groups"><g class="traces" transform="translate(0, 20.8)" style="opacity: 1;"><g class="layers" style="opacity: 1;"><g class="legendfill"/><g class="legendlines"><path class="js-line" d="M5,0h30" style="fill: none; stroke: rgb(31, 119, 180); stroke-opacity: 1; stroke-width: 2px;"/></g><g class="legendsymbols"><g class="legendpoints"/></g></g><text class="legendtext user-select-none" text-anchor="start" x="40" y="8.58" style="font-family: 'Open Sans', verdana, arial, sans-serif; font-size: 22px; fill: rgb(68, 68, 68); fill-opacity: 1; white-space: pre;">Streamline</text><rect class="legendtoggle" pointer-events="all" style="cursor: pointer; fill: rgb(0, 0, 0); fill-opacity: 0;" x="0" y="-15.8" width="222" height="31.6"/></g><g class="traces" transform="translate(0, 52.400000000000006)" style="opacity: 1;"><g class="layers" style="opacity: 1;"><g class="legendfill"/><g class="legendlines"/><g class="legendsymbols"><g class="legendpoints"><path class="scatterpts" transform="translate(20,0)" d="M7,0A7,7 0 1,1 0,-7A7,7 0 0,1 7,0Z" style="opacity: 1; stroke-width: 0px; fill: rgb(255, 127, 14); fill-opacity: 1;"/></g></g></g><text class="legendtext user-select-none" text-anchor="start" x="40" y="8.58" style="font-family: 'Open Sans', verdana, arial, sans-serif; font-size: 22px; fill: rgb(68, 68, 68); fill-opacity: 1; white-space: pre;">Equilibrium 1</text><rect class="legendtoggle" pointer-events="all" style="cursor: pointer; fill: rgb(0, 0, 0); fill-opacity: 0;" x="0" y="-15.8" width="222" height="31.6"/></g><g class="traces" transform="translate(0, 84)" style="opacity: 1;"><g class="layers" style="opacity: 1;"><g class="legendfill"/><g class="legendlines"/><g class="legendsymbols"><g class="legendpoints"><path class="scatterpts" transform="translate(20,0)" d="M7,0A7,7 0 1,1 0,-7A7,7 0 0,1 7,0Z" style="opacity: 1; stroke-width: 0px; fill: rgb(44, 160, 44); fill-opacity: 1;"/></g></g></g><text class="legendtext user-select-none" text-anchor="start" x="40" y="8.58" style="font-family: 'Open Sans', verdana, arial, sans-serif; font-size: 22px; fill: rgb(68, 68, 68); fill-opacity: 1; white-space: pre;">Equilibrium 2</text><rect class="legendtoggle" pointer-events="all" style="cursor: pointer; fill: rgb(0, 0, 0); fill-opacity: 0;" x="0" y="-15.8" width="222" height="31.6"/></g><g class="traces" transform="translate(0, 115.60000000000001)" style="opacity: 1;"><g class="layers" style="opacity: 1;"><g class="legendfill"/><g class="legendlines"/><g class="legendsymbols"><g class="legendpoints"><path class="scatterpts" transform="translate(20,0)" d="M7,0A7,7 0 1,1 0,-7A7,7 0 0,1 7,0Z" style="opacity: 1; stroke-width: 0px; fill: rgb(214, 39, 40); fill-opacity: 1;"/></g></g></g><text class="legendtext user-select-none" text-anchor="start" x="40" y="8.58" style="font-family: 'Open Sans', verdana, arial, sans-serif; font-size: 22px; fill: rgb(68, 68, 68); fill-opacity: 1; white-space: pre;">Equilibrium 3</text><rect class="legendtoggle" pointer-events="all" style="cursor: pointer; fill: rgb(0, 0, 0); fill-opacity: 0;" x="0" y="-15.8" width="222" height="31.6"/></g><g class="traces" transform="translate(0, 147.20000000000002)" style="opacity: 1;"><g class="layers" style="opacity: 1;"><g class="legendfill"/><g class="legendlines"/><g class="legendsymbols"><g class="legendpoints"><path class="scatterpts" transform="translate(20,0)" d="M7,0A7,7 0 1,1 0,-7A7,7 0 0,1 7,0Z" style="opacity: 1; stroke-width: 0px; fill: rgb(148, 103, 189); fill-opacity: 1;"/></g></g></g><text class="legendtext user-select-none" text-anchor="start" x="40" y="8.58" style="font-family: 'Open Sans', verdana, arial, sans-serif; font-size: 22px; fill: rgb(68, 68, 68); fill-opacity: 1; white-space: pre;">Equilibrium 4</text><rect class="legendtoggle" pointer-events="all" x="0" y="-15.8" width="222" height="31.6" style="cursor: pointer; fill: rgb(0, 0, 0); fill-opacity: 0;"/></g></g></g><rect class="scrollbar" rx="20" ry="2" width="0" height="0" style="fill: rgb(128, 139, 164); fill-opacity: 1;"/></g><g class="g-xtitle"><text class="xtitle" x="289" y="490" text-anchor="middle" style="font-family: 'Open Sans', verdana, arial, sans-serif; font-size: 20px; fill: rgb(68, 68, 68); opacity: 1; font-weight: normal; white-space: pre;">population size, N1</text></g><g class="g-ytitle"><text class="ytitle" transform="rotate(-90,30,260) translate(0, 0)" x="30" y="260" text-anchor="middle" style="font-family: 'Open Sans', verdana, arial, sans-serif; font-size: 20px; fill: rgb(68, 68, 68); opacity: 1; font-weight: normal; white-space: pre;">population size, N2</text></g></g></svg>