<svg class="main-svg" xmlns="http://www.w3.org/2000/svg" xmlns:xlink="http://www.w3.org/1999/xlink" width="700" height="500"><rect x="0" y="0" width="700" height="500" style="fill: rgb(255, 255, 255); fill-opacity: 1;"/><defs id="defs-1c45ad"><g class="gradients"/><g class="clips"><clipPath class="axesclip" id="clip1c45adx"><rect x="80" y="0" width="418" height="500"/></clipPath><clipPath class="axesclip" id="clip1c45ady"><rect x="0" y="100" width="700" height="320"/></clipPath><clipPath class="axesclip" id="clip1c45adxy"><rect x="80" y="100" width="418" height="320"/></clipPath><clipPath class="plotclip" id="clip1c45adxyplot"><rect width="418" height="320"/></clipPath></g></defs><g class="bglayer"><rect class="bg" x="80" y="100" width="418" height="320" style="fill: rgb(255, 255, 255); fill-opacity: 1; stroke-width: 0px;"/></g><g class="layer-below"><g class="imagelayer"/><g class="shapelayer"/></g><g class="cartesianlayer"><g class="subplot xy"><g class="layer-subplot"><g class="shapelayer"/><g class="imagelayer"/></g><g class="gridlayer" transform="translate(80,100)"/><g class="overgrid"/><g class="zerolinelayer" transform="translate(80,100)"><path class="xzl zl crisp" d="M0,0v320" transform="translate(35.75,0)" style="stroke: rgb(68, 68, 68); stroke-opacity: 1; stroke-width: 1px;"/><path class="yzl zl crisp" d="M0,0h418" transform="translate(0,295.25)" style="stroke: rgb(68, 68, 68); stroke-opacity: 1; stroke-width: 1px;"/></g><g class="overzero"/><path class="xlines-below"/><path class="ylines-below"/><g class="overlines-below"/><g class="xaxislayer-below"/><g class="yaxislayer-below"/><g class="overaxes-below"/><g class="plot" transform="translate(80, 100)" clip-path="url(#clip1c45adxyplot)"><g class="imagelayer"/><g class="maplayer"/><g class="barlayer"/><g class="carpetlayer"/><g class="boxlayer"/><g class="scatterlayer"><g class="trace scatter trace35bdce" style="stroke-miterlimit: 2; opacity: 1;"><path class="js-line" d="M36.13,294.97L37.67,289.56L38.11,286.78L40.75,261.62L41,258.82L47.19,194.49L47.55,191.7L50.8,172.22L51.42,169.46L54.68,158.5L55.82,155.82L58.83,150.67L60.92,148.33L63.57,146.32L66.85,144.88L74.36,144.08L78.16,144.41L89.21,146.69L92.8,147.67L113.78,154.55L117.22,155.8L144.21,166.45L147.52,167.86L170.19,178.36L173.34,179.96L191.49,190.25L194.35,192.11L204.84,200.08L206.91,202.1L207.88,203.4L207.89,203.36" style="vector-effect: non-scaling-stroke; fill: none; stroke: rgb(31, 119, 180); stroke-opacity: 1; stroke-width: 2px; opacity: 1;"/><path class="js-line" d="M49.37,294.97L68.39,293.47L72.17,292.99L90.73,289.52L94.35,288.59L108.41,284.11L111.79,282.79L124.73,276.77L127.8,275.09L139.42,267.77L142.16,265.8L154.94,255.35L157.33,253.16L170.69,239.46L172.79,237.11L199.39,206.29" style="vector-effect: non-scaling-stroke; fill: none; stroke: rgb(31, 119, 180); stroke-opacity: 1; stroke-width: 2px; opacity: 1;"/><path class="js-line" d="M102.3,294.97L155.98,293.67L159.81,293.47L182.66,291.51L186.43,290.97L197.43,288.55L200.9,287.35L207.14,284.12L209.72,282.05L213.55,277.21L214.87,274.58L217.21,266.36L217.62,263.57L218.2,252.37L218.15,249.57L217.12,235.58L216.77,232.79L214.23,218.9L213.53,216.15L212.74,213.41" style="vector-effect: non-scaling-stroke; fill: none; stroke: rgb(31, 119, 180); stroke-opacity: 1; stroke-width: 2px; opacity: 1;"/><path class="js-line" d="M36.13,227.29L37.1,140.37L37.27,137.57L38.03,132L39.84,129.86L46.75,131.23L50.24,132.3L57.24,134.52" style="vector-effect: non-scaling-stroke; fill: none; stroke: rgb(31, 119, 180); stroke-opacity: 1; stroke-width: 2px; opacity: 1;"/><path class="js-line" d="M287.58,294.97L237.72,294.27L233.95,293.83L230.48,292.72L228.33,290.48L226.62,285.04L226.11,282.27" style="vector-effect: non-scaling-stroke; fill: none; stroke: rgb(31, 119, 180); stroke-opacity: 1; stroke-width: 2px; opacity: 1;"/><path class="js-line" d="M36.13,62.92L36.84,124.59" style="vector-effect: non-scaling-stroke; fill: none; stroke: rgb(31, 119, 180); stroke-opacity: 1; stroke-width: 2px; opacity: 1;"/><path class="js-line" d="M380.22,294.97L295.79,294.9" style="vector-effect: non-scaling-stroke; fill: none; stroke: rgb(31, 119, 180); stroke-opacity: 1; stroke-width: 2px; opacity: 1;"/><path class="js-line" d="M45.5,290.13L51.03,282.78L52.57,280.21L59.23,267.07L60.43,264.4L86.39,205.72L87.82,203.12L96.03,190.46L97.95,188.03L104.52,181.13L107.05,179.02L112.73,175.26L115.91,173.7L122.89,171.4L126.61,170.73L134.25,170.33" style="vector-effect: non-scaling-stroke; fill: none; stroke: rgb(31, 119, 180); stroke-opacity: 1; stroke-width: 2px; opacity: 1;"/><path class="js-line" d="M49.23,18.63L51.24,71.89L51.43,74.69L53.57,97.06L53.97,99.85L56.88,113.7L57.74,116.44L61.33,124.42" style="vector-effect: non-scaling-stroke; fill: none; stroke: rgb(31, 119, 180); stroke-opacity: 1; stroke-width: 2px; opacity: 1;"/><path class="js-line" d="M414.36,285.29L322.26,284.58L318.43,284.47L283.99,282.61L280.19,282.24L265.12,280.13L261.42,279.37L250.78,276.2L247.49,274.77L241.54,271.24L238.95,269.17L234.58,264.57L232.75,262.11L228.32,254.35" style="vector-effect: non-scaling-stroke; fill: none; stroke: rgb(31, 119, 180); stroke-opacity: 1; stroke-width: 2px; opacity: 1;"/><path class="js-line" d="M56.98,289.11L65.19,283.24L67.66,281.09L76.6,271.98L78.66,269.61L90.09,255.01L91.9,252.54L121.03,213.06L123.07,210.68L131.89,201.51L134.31,199.33L142.3,193.28L145.25,191.49L151.66,188.42L155.13,187.23L162.49,185.7L166.31,185.43L173.94,185.88" style="vector-effect: non-scaling-stroke; fill: none; stroke: rgb(31, 119, 180); stroke-opacity: 1; stroke-width: 2px; opacity: 1;"/><path class="js-line" d="M62.38,18.64L64.88,63.46L65.11,66.26L68.09,91.4L68.55,94.18L71.6,108.02L72.4,110.76L76.6,121.54L77.97,124.16L83.11,131.68L85.21,134.03L92.59,140.46L95.36,142.4L98.25,144.25" style="vector-effect: non-scaling-stroke; fill: none; stroke: rgb(31, 119, 180); stroke-opacity: 1; stroke-width: 2px; opacity: 1;"/><path class="js-line" d="M414.36,275.55L341.45,275.56L337.61,275.49L303.12,274.14L299.3,273.87L276.54,271.37L272.8,270.74L258.26,267.19L254.81,265.98L245.22,261.35L242.37,259.47" style="vector-effect: non-scaling-stroke; fill: none; stroke: rgb(31, 119, 180); stroke-opacity: 1; stroke-width: 2px; opacity: 1;"/><path class="js-line" d="M69.44,288.39L78.89,283.61L81.85,281.82L92.85,274.01L95.41,271.92L107.4,260.98L109.66,258.72L126.82,240.12L128.91,237.76L150.35,214.52L152.67,212.28L162.68,203.79L165.44,201.84L174.63,196.8L178.06,195.56L185.46,194.17" style="vector-effect: non-scaling-stroke; fill: none; stroke: rgb(31, 119, 180); stroke-opacity: 1; stroke-width: 2px; opacity: 1;"/><path class="js-line" d="M75.56,18.64L78.1,57.85L78.35,60.64L81.41,85.78L81.86,88.56L85.38,105.19L86.14,107.93L89.91,118.8L91.07,121.48L92.35,124.12" style="vector-effect: non-scaling-stroke; fill: none; stroke: rgb(31, 119, 180); stroke-opacity: 1; stroke-width: 2px; opacity: 1;"/><path class="js-line" d="M414.36,265.78L345.29,266.67L341.45,266.65L306.95,265.66L303.12,265.43L284.08,263.71" style="vector-effect: non-scaling-stroke; fill: none; stroke: rgb(31, 119, 180); stroke-opacity: 1; stroke-width: 2px; opacity: 1;"/><path class="js-line" d="M88.77,18.64L91.52,57.84L91.79,60.64L94.98,85.76" style="vector-effect: non-scaling-stroke; fill: none; stroke: rgb(31, 119, 180); stroke-opacity: 1; stroke-width: 2px; opacity: 1;"/><path class="js-line" d="M414.35,255.95L356.85,257.95L353.01,258.03L314.64,257.98L310.8,257.87L287.86,256.51L284.06,256.13L269.01,253.93L265.32,253.18L254.55,250.22L251.11,248.97L241.53,244.33L238.64,242.49L230.98,236.23L228.76,233.95" style="vector-effect: non-scaling-stroke; fill: none; stroke: rgb(31, 119, 180); stroke-opacity: 1; stroke-width: 2px; opacity: 1;"/><path class="js-line" d="M102,18.64L104.74,57.84L105.01,60.64L108.56,88.55L109.04,91.34L113.28,110.71L114.06,113.46L118.88,127.02L120.07,129.69L125.8,140.09L127.51,142.6L133.34,149.85L135.52,152.15L137.81,154.4" style="vector-effect: non-scaling-stroke; fill: none; stroke: rgb(31, 119, 180); stroke-opacity: 1; stroke-width: 2px; opacity: 1;"/><path class="js-line" d="M414.33,246.09L353.12,249.67L349.29,249.83L310.93,250.52L307.09,250.47L284.12,249.43L280.31,249.1L268.96,247.67" style="vector-effect: non-scaling-stroke; fill: none; stroke: rgb(31, 119, 180); stroke-opacity: 1; stroke-width: 2px; opacity: 1;"/><path class="js-line" d="M115.26,18.64L117.8,57.85L118.05,60.65L120.9,85.79" style="vector-effect: non-scaling-stroke; fill: none; stroke: rgb(31, 119, 180); stroke-opacity: 1; stroke-width: 2px; opacity: 1;"/><path class="js-line" d="M125.2,286.32L139.22,281.78L142.6,280.45L155.4,274.27L158.4,272.53L169.51,264.8L172.06,262.71L181.31,253.77L183.4,251.42L190.93,241.65L192.62,239.13L200.02,226.2L201.3,223.56" style="vector-effect: non-scaling-stroke; fill: none; stroke: rgb(31, 119, 180); stroke-opacity: 1; stroke-width: 2px; opacity: 1;"/><path class="js-line" d="M128.53,18.64L131.15,63.46L131.39,66.26L134.5,94.2L134.91,96.99L138.56,116.43L139.22,119.19L143.24,132.9L144.22,135.61L148.89,146.29L150.28,148.91L156.83,159.04L158.74,161.47L167.41,170.71L169.82,172.9" style="vector-effect: non-scaling-stroke; fill: none; stroke: rgb(31, 119, 180); stroke-opacity: 1; stroke-width: 2px; opacity: 1;"/><path class="js-line" d="M418,225.72L361.29,232.94L357.49,233.36L319.41,236.81L315.59,237.06L288.77,238.04L284.93,238.03L265.79,237.11L262,236.69L250.8,234.78L247.16,233.88L236.83,230.2L233.65,228.64L230.64,226.9" style="vector-effect: non-scaling-stroke; fill: none; stroke: rgb(31, 119, 180); stroke-opacity: 1; stroke-width: 2px; opacity: 1;"/><path class="js-line" d="M141.83,18.63L143.68,60.67L143.86,63.47L146.54,94.25" style="vector-effect: non-scaling-stroke; fill: none; stroke: rgb(31, 119, 180); stroke-opacity: 1; stroke-width: 2px; opacity: 1;"/><path class="js-line" d="M151.64,286.28L165.69,281.78L169.03,280.4L178.43,275.56L181.32,273.72L189.11,267.54L191.39,265.28L197.32,258.08L199,255.56L203.23,247.74L204.4,245.07L207.99,234.17L208.64,231.41L210.02,223.06" style="vector-effect: non-scaling-stroke; fill: none; stroke: rgb(31, 119, 180); stroke-opacity: 1; stroke-width: 2px; opacity: 1;"/><path class="js-line" d="M155.13,18.63L157,74.69L157.16,77.5L160.04,111.08L160.39,113.87L163.58,133.35L164.18,136.12L167.88,149.88L168.8,152.6L173.27,163.32" style="vector-effect: non-scaling-stroke; fill: none; stroke: rgb(31, 119, 180); stroke-opacity: 1; stroke-width: 2px; opacity: 1;"/><path class="js-line" d="M417.68,205.46L369.83,215.76L366.12,216.49L325.1,223.74L321.34,224.31L291.06,228L287.25,228.32L268.1,229.18L264.27,229.16L249.01,228.07L245.26,227.47L241.57,226.71" style="vector-effect: non-scaling-stroke; fill: none; stroke: rgb(31, 119, 180); stroke-opacity: 1; stroke-width: 2px; opacity: 1;"/><path class="js-line" d="M168.46,18.63L169.2,74.71L169.29,77.51L171.01,111.14L171.23,113.93" style="vector-effect: non-scaling-stroke; fill: none; stroke: rgb(31, 119, 180); stroke-opacity: 1; stroke-width: 2px; opacity: 1;"/><path class="js-line" d="M181.79,18.63L181.41,94.34L181.46,97.14L182.71,130.78L182.91,133.58L184.97,153.14L185.4,155.93L188.35,169.78L189.14,172.52L193.32,183.3" style="vector-effect: non-scaling-stroke; fill: none; stroke: rgb(31, 119, 180); stroke-opacity: 1; stroke-width: 2px; opacity: 1;"/><path class="js-line" d="M417.15,185.11L374.99,198.63L371.43,199.69L335.56,209.64L331.93,210.56L302.61,217.2L298.9,217.93L276.43,221.56L272.64,222L268.84,222.39" style="vector-effect: non-scaling-stroke; fill: none; stroke: rgb(31, 119, 180); stroke-opacity: 1; stroke-width: 2px; opacity: 1;"/><path class="js-line" d="M195.14,18.63L192.32,116.75L192.3,119.56L192.73,150.4L192.87,153.2L193.72,164.4" style="vector-effect: non-scaling-stroke; fill: none; stroke: rgb(31, 119, 180); stroke-opacity: 1; stroke-width: 2px; opacity: 1;"/><path class="js-line" d="M208.5,18.64L201.57,133.49" style="vector-effect: non-scaling-stroke; fill: none; stroke: rgb(31, 119, 180); stroke-opacity: 1; stroke-width: 2px; opacity: 1;"/><path class="js-line" d="M416.42,164.78L380.35,180.8L377.02,182.19L343.16,195.38L339.71,196.62L311.78,205.92L308.23,206.99L290.29,211.96" style="vector-effect: non-scaling-stroke; fill: none; stroke: rgb(31, 119, 180); stroke-opacity: 1; stroke-width: 2px; opacity: 1;"/><path class="js-line" d="M221.86,18.64L215.85,85.79L215.57,88.59L215.01,94.18" style="vector-effect: non-scaling-stroke; fill: none; stroke: rgb(31, 119, 180); stroke-opacity: 1; stroke-width: 2px; opacity: 1;"/><path class="js-line" d="M235.24,18.65L228.33,77.32" style="vector-effect: non-scaling-stroke; fill: none; stroke: rgb(31, 119, 180); stroke-opacity: 1; stroke-width: 2px; opacity: 1;"/><path class="js-line" d="M415.54,144.56L385.6,162.1L382.54,163.79L351.21,179.98L348,181.52L318.52,194.65L315.17,196.02L298.16,202.51" style="vector-effect: non-scaling-stroke; fill: none; stroke: rgb(31, 119, 180); stroke-opacity: 1; stroke-width: 2px; opacity: 1;"/><path class="js-line" d="M262,18.67L254.23,63.17L253.69,65.95L245.94,101.96L245.28,104.72L236.4,137.73L235.57,140.47L227.29,164.97L226.26,167.67L218.29,186.41L217.01,189.05L215.68,191.68" style="vector-effect: non-scaling-stroke; fill: none; stroke: rgb(31, 119, 180); stroke-opacity: 1; stroke-width: 2px; opacity: 1;"/><path class="js-line" d="M417.23,122.45L393.18,140.55L390.43,142.51L365.02,159.6L362.12,161.44L341.35,173.88" style="vector-effect: non-scaling-stroke; fill: none; stroke: rgb(31, 119, 180); stroke-opacity: 1; stroke-width: 2px; opacity: 1;"/><path class="js-line" d="M288.79,18.7L279.66,57.39L278.95,60.14L269.56,93.08L268.71,95.81L258.32,125.71L257.27,128.41L248.19,149.83L246.95,152.48L237.47,170.85L235.98,173.43L229.6,183.63" style="vector-effect: non-scaling-stroke; fill: none; stroke: rgb(31, 119, 180); stroke-opacity: 1; stroke-width: 2px; opacity: 1;"/><path class="js-line" d="M416.04,102.37L392.18,124.33L389.71,126.47L366.68,145.27L364.03,147.31L355.99,153.32" style="vector-effect: non-scaling-stroke; fill: none; stroke: rgb(31, 119, 180); stroke-opacity: 1; stroke-width: 2px; opacity: 1;"/><path class="js-line" d="M316.36,16L305.76,51.62L304.87,54.35L294.37,84.22L293.33,86.92L283.35,111.08L282.16,113.74L271.9,134.88L270.52,137.5L258.54,158.15L256.91,160.69L246.38,175.64L244.48,178.08L242.54,180.5" style="vector-effect: non-scaling-stroke; fill: none; stroke: rgb(31, 119, 180); stroke-opacity: 1; stroke-width: 2px; opacity: 1;"/><path class="js-line" d="M416.98,80.09L396,103.57L393.81,105.87L373.36,126.21L371,128.42L363.81,134.98" style="vector-effect: non-scaling-stroke; fill: none; stroke: rgb(31, 119, 180); stroke-opacity: 1; stroke-width: 2px; opacity: 1;"/><path class="js-line" d="M343.34,16.09L331.48,48.6L330.42,51.29L319.12,78.09L317.91,80.75L306.33,104.52L304.96,107.14L293.26,127.88L291.7,130.44L280.11,148.14L278.34,150.63L265.13,167.72L263.1,170.1L254.6,179.44" style="vector-effect: non-scaling-stroke; fill: none; stroke: rgb(31, 119, 180); stroke-opacity: 1; stroke-width: 2px; opacity: 1;"/><path class="js-line" d="M416.92,47.85L399.58,72.86L397.76,75.33L378.74,99.68L376.74,102.07L357.98,123.26L355.8,125.56L337.63,143.64L335.26,145.85L315.51,163.02L312.93,165.09L294.15,179.12L291.36,181.05L273.93,192.04L270.91,193.77L255.17,201.78L251.88,203.22L238.11,208.14L234.48,209.06L226.99,210.22L223.17,210.31L215.85,208.94" style="vector-effect: non-scaling-stroke; fill: none; stroke: rgb(31, 119, 180); stroke-opacity: 1; stroke-width: 2px; opacity: 1;"/><path class="js-line" d="M370.33,16.19L356.34,48.25L355.1,50.9L340.51,79.84L339.1,82.45L324,108.23L322.39,110.77L308.77,130.87L306.96,133.34L295.62,147.98" style="vector-effect: non-scaling-stroke; fill: none; stroke: rgb(31, 119, 180); stroke-opacity: 1; stroke-width: 2px; opacity: 1;"/><path class="js-line" d="M397.31,16.32L382.64,45.24L381.23,47.84L366.38,73.7L364.81,76.26L349.98,99.04L348.24,101.54L333.67,121.29L331.76,123.72L315.66,142.81L313.54,145.15L309.23,149.79" style="vector-effect: non-scaling-stroke; fill: none; stroke: rgb(31, 119, 180); stroke-opacity: 1; stroke-width: 2px; opacity: 1;"/><path class="js-line" d="M58.66,241.01L67.78,210.9L68.72,208.18L75.19,192.04L76.45,189.39L82.42,179.06L84.21,176.58L90.72,169.66L93.37,167.63L99.52,164.31L102.99,163.13L106.67,162.33" style="vector-effect: non-scaling-stroke; fill: none; stroke: rgb(31, 119, 180); stroke-opacity: 1; stroke-width: 2px; opacity: 1;"/><path class="js-line" d="M58.74,202.34L63.5,185.89L64.46,183.17L69.08,172.48L70.52,169.88L75.99,162.5L78.35,160.29L84.16,156.66L87.6,155.43" style="vector-effect: non-scaling-stroke; fill: none; stroke: rgb(31, 119, 180); stroke-opacity: 1; stroke-width: 2px; opacity: 1;"/><path class="js-line" d="M113.76,269.04L126.38,258.49L128.77,256.3L144.63,240.46L146.81,238.15L171.18,212.97" style="vector-effect: non-scaling-stroke; fill: none; stroke: rgb(31, 119, 180); stroke-opacity: 1; stroke-width: 2px; opacity: 1;"/><path class="js-line" d="M83.39,237.71L96.64,214.41L98.25,211.86L107.14,199.44L109.13,197.05L115.75,190.17L118.21,188.02L126.61,182.29L129.78,180.71L136.7,178.31L140.39,177.54L148,176.93L151.83,177.06L159.36,178.05" style="vector-effect: non-scaling-stroke; fill: none; stroke: rgb(31, 119, 180); stroke-opacity: 1; stroke-width: 2px; opacity: 1;"/><path class="js-line" d="M221.78,98.8L214.8,146.19L214.34,148.98L207.5,190.73" style="vector-effect: non-scaling-stroke; fill: none; stroke: rgb(31, 119, 180); stroke-opacity: 1; stroke-width: 2px; opacity: 1;"/><path class="js-line" d="M299.32,156.9L282.99,172.49L280.54,174.64L265.01,187.06L262.28,189.03L247.88,198.28L244.82,199.98L241.69,201.6" style="vector-effect: non-scaling-stroke; fill: none; stroke: rgb(31, 119, 180); stroke-opacity: 1; stroke-width: 2px; opacity: 1;"/><path class="js-line" d="M102.73,152.81L110.33,153.33L104.97,149.36" style="vector-effect: non-scaling-stroke; fill: none; stroke: rgb(31, 119, 180); stroke-opacity: 1; stroke-width: 2px; opacity: 1;"/><path class="js-line" d="M110.2,285.66L115.12,281.39L107.6,282.35" style="vector-effect: non-scaling-stroke; fill: none; stroke: rgb(31, 119, 180); stroke-opacity: 1; stroke-width: 2px; opacity: 1;"/><path class="js-line" d="M164.41,295.15L171.27,292.71L163.86,291.35" style="vector-effect: non-scaling-stroke; fill: none; stroke: rgb(31, 119, 180); stroke-opacity: 1; stroke-width: 2px; opacity: 1;"/><path class="js-line" d="M38.92,193.29L36.34,188.03L33.69,193.27" style="vector-effect: non-scaling-stroke; fill: none; stroke: rgb(31, 119, 180); stroke-opacity: 1; stroke-width: 2px; opacity: 1;"/><path class="js-line" d="M267.92,293L260.72,294.85L267.87,296.81" style="vector-effect: non-scaling-stroke; fill: none; stroke: rgb(31, 119, 180); stroke-opacity: 1; stroke-width: 2px; opacity: 1;"/><path class="js-line" d="M33.55,80.11L36.18,85.35L38.78,80.1" style="vector-effect: non-scaling-stroke; fill: none; stroke: rgb(31, 119, 180); stroke-opacity: 1; stroke-width: 2px; opacity: 1;"/><path class="js-line" d="M356.69,293.06L349.52,294.96L356.69,296.87" style="vector-effect: non-scaling-stroke; fill: none; stroke: rgb(31, 119, 180); stroke-opacity: 1; stroke-width: 2px; opacity: 1;"/><path class="js-line" d="M68.8,251.22L68.37,245.65L63.8,250.12" style="vector-effect: non-scaling-stroke; fill: none; stroke: rgb(31, 119, 180); stroke-opacity: 1; stroke-width: 2px; opacity: 1;"/><path class="js-line" d="M47.54,49.89L50.37,55.08L52.76,49.78" style="vector-effect: non-scaling-stroke; fill: none; stroke: rgb(31, 119, 180); stroke-opacity: 1; stroke-width: 2px; opacity: 1;"/><path class="js-line" d="M352.5,283.21L345.28,285.03L352.41,287.03" style="vector-effect: non-scaling-stroke; fill: none; stroke: rgb(31, 119, 180); stroke-opacity: 1; stroke-width: 2px; opacity: 1;"/><path class="js-line" d="M92.65,255.59L93.68,250.06L88.03,253.81" style="vector-effect: non-scaling-stroke; fill: none; stroke: rgb(31, 119, 180); stroke-opacity: 1; stroke-width: 2px; opacity: 1;"/><path class="js-line" d="M61.85,58.34L64.88,63.46L67.07,58.11" style="vector-effect: non-scaling-stroke; fill: none; stroke: rgb(31, 119, 180); stroke-opacity: 1; stroke-width: 2px; opacity: 1;"/><path class="js-line" d="M360.17,273.87L352.96,275.71L360.1,277.68" style="vector-effect: non-scaling-stroke; fill: none; stroke: rgb(31, 119, 180); stroke-opacity: 1; stroke-width: 2px; opacity: 1;"/><path class="js-line" d="M109.85,261.81L111.89,256.43L105.6,259.59" style="vector-effect: non-scaling-stroke; fill: none; stroke: rgb(31, 119, 180); stroke-opacity: 1; stroke-width: 2px; opacity: 1;"/><path class="js-line" d="M74.82,49.93L77.86,55.05L80.04,49.7" style="vector-effect: non-scaling-stroke; fill: none; stroke: rgb(31, 119, 180); stroke-opacity: 1; stroke-width: 2px; opacity: 1;"/><path class="js-line" d="M375.46,264.64L368.32,266.62L375.53,268.46" style="vector-effect: non-scaling-stroke; fill: none; stroke: rgb(31, 119, 180); stroke-opacity: 1; stroke-width: 2px; opacity: 1;"/><path class="js-line" d="M87.16,35.91L90.13,41.05L92.37,35.71" style="vector-effect: non-scaling-stroke; fill: none; stroke: rgb(31, 119, 180); stroke-opacity: 1; stroke-width: 2px; opacity: 1;"/><path class="js-line" d="M356.29,256.07L349.17,258.09L356.41,259.88" style="vector-effect: non-scaling-stroke; fill: none; stroke: rgb(31, 119, 180); stroke-opacity: 1; stroke-width: 2px; opacity: 1;"/><path class="js-line" d="M102.43,61.15L105.58,66.23L107.64,60.86" style="vector-effect: non-scaling-stroke; fill: none; stroke: rgb(31, 119, 180); stroke-opacity: 1; stroke-width: 2px; opacity: 1;"/><path class="js-line" d="M371.59,246.89L364.61,249.15L371.95,250.69" style="vector-effect: non-scaling-stroke; fill: none; stroke: rgb(31, 119, 180); stroke-opacity: 1; stroke-width: 2px; opacity: 1;"/><path class="js-line" d="M113.58,35.9L116.52,41.05L118.79,35.72" style="vector-effect: non-scaling-stroke; fill: none; stroke: rgb(31, 119, 180); stroke-opacity: 1; stroke-width: 2px; opacity: 1;"/><path class="js-line" d="M157.56,275.56L161.31,270.7L154.16,272.66" style="vector-effect: non-scaling-stroke; fill: none; stroke: rgb(31, 119, 180); stroke-opacity: 1; stroke-width: 2px; opacity: 1;"/><path class="js-line" d="M128.8,66.75L131.89,71.85L134.02,66.49" style="vector-effect: non-scaling-stroke; fill: none; stroke: rgb(31, 119, 180); stroke-opacity: 1; stroke-width: 2px; opacity: 1;"/><path class="js-line" d="M360.42,231.12L353.7,233.77L361.18,234.9" style="vector-effect: non-scaling-stroke; fill: none; stroke: rgb(31, 119, 180); stroke-opacity: 1; stroke-width: 2px; opacity: 1;"/><path class="js-line" d="M139.93,38.68L142.78,43.86L145.15,38.56" style="vector-effect: non-scaling-stroke; fill: none; stroke: rgb(31, 119, 180); stroke-opacity: 1; stroke-width: 2px; opacity: 1;"/><path class="js-line" d="M180.75,276.79L184.06,271.76L177.1,274.05" style="vector-effect: non-scaling-stroke; fill: none; stroke: rgb(31, 119, 180); stroke-opacity: 1; stroke-width: 2px; opacity: 1;"/><path class="js-line" d="M153.84,63.92L156.71,69.09L159.06,63.78" style="vector-effect: non-scaling-stroke; fill: none; stroke: rgb(31, 119, 180); stroke-opacity: 1; stroke-width: 2px; opacity: 1;"/><path class="js-line" d="M364.98,214.75L358.7,217.92L366.31,218.44" style="vector-effect: non-scaling-stroke; fill: none; stroke: rgb(31, 119, 180); stroke-opacity: 1; stroke-width: 2px; opacity: 1;"/><path class="js-line" d="M166.03,47.06L168.72,52.28L171.26,47.02" style="vector-effect: non-scaling-stroke; fill: none; stroke: rgb(31, 119, 180); stroke-opacity: 1; stroke-width: 2px; opacity: 1;"/><path class="js-line" d="M178.67,69.47L181.28,74.71L183.89,69.47" style="vector-effect: non-scaling-stroke; fill: none; stroke: rgb(31, 119, 180); stroke-opacity: 1; stroke-width: 2px; opacity: 1;"/><path class="js-line" d="M373.55,197.01L367.88,200.74L375.51,200.55" style="vector-effect: non-scaling-stroke; fill: none; stroke: rgb(31, 119, 180); stroke-opacity: 1; stroke-width: 2px; opacity: 1;"/><path class="js-line" d="M190.98,63.81L193.43,69.09L196.2,63.89" style="vector-effect: non-scaling-stroke; fill: none; stroke: rgb(31, 119, 180); stroke-opacity: 1; stroke-width: 2px; opacity: 1;"/><path class="js-line" d="M203.89,52.53L206.18,57.86L209.11,52.7" style="vector-effect: non-scaling-stroke; fill: none; stroke: rgb(31, 119, 180); stroke-opacity: 1; stroke-width: 2px; opacity: 1;"/><path class="js-line" d="M378.64,179.33L373.67,183.57L381.21,182.66" style="vector-effect: non-scaling-stroke; fill: none; stroke: rgb(31, 119, 180); stroke-opacity: 1; stroke-width: 2px; opacity: 1;"/><path class="js-line" d="M217.61,38.48L219.76,43.83L222.82,38.72" style="vector-effect: non-scaling-stroke; fill: none; stroke: rgb(31, 119, 180); stroke-opacity: 1; stroke-width: 2px; opacity: 1;"/><path class="js-line" d="M231.09,32.83L233.11,38.22L236.3,33.15" style="vector-effect: non-scaling-stroke; fill: none; stroke: rgb(31, 119, 180); stroke-opacity: 1; stroke-width: 2px; opacity: 1;"/><path class="js-line" d="M380.6,162.48L376.38,167.13L383.7,165.55" style="vector-effect: non-scaling-stroke; fill: none; stroke: rgb(31, 119, 180); stroke-opacity: 1; stroke-width: 2px; opacity: 1;"/><path class="js-line" d="M249.94,71.58L251.46,77.05L255.11,72.14" style="vector-effect: non-scaling-stroke; fill: none; stroke: rgb(31, 119, 180); stroke-opacity: 1; stroke-width: 2px; opacity: 1;"/><path class="js-line" d="M396.45,135.51L393.18,140.55L400.12,138.23" style="vector-effect: non-scaling-stroke; fill: none; stroke: rgb(31, 119, 180); stroke-opacity: 1; stroke-width: 2px; opacity: 1;"/><path class="js-line" d="M273.34,71.12L274.45,76.64L278.46,71.89" style="vector-effect: non-scaling-stroke; fill: none; stroke: rgb(31, 119, 180); stroke-opacity: 1; stroke-width: 2px; opacity: 1;"/><path class="js-line" d="M399.59,114.74L397.08,120.01L403.64,117.15" style="vector-effect: non-scaling-stroke; fill: none; stroke: rgb(31, 119, 180); stroke-opacity: 1; stroke-width: 2px; opacity: 1;"/><path class="js-line" d="M297.64,67.83L298.36,73.39L302.7,68.79" style="vector-effect: non-scaling-stroke; fill: none; stroke: rgb(31, 119, 180); stroke-opacity: 1; stroke-width: 2px; opacity: 1;"/><path class="js-line" d="M402.15,93.52L400.32,98.93L406.49,95.64" style="vector-effect: non-scaling-stroke; fill: none; stroke: rgb(31, 119, 180); stroke-opacity: 1; stroke-width: 2px; opacity: 1;"/><path class="js-line" d="M321.18,67.18L321.49,72.75L326.15,68.33" style="vector-effect: non-scaling-stroke; fill: none; stroke: rgb(31, 119, 180); stroke-opacity: 1; stroke-width: 2px; opacity: 1;"/><path class="js-line" d="M368.21,108.49L366.5,113.93L372.59,110.56" style="vector-effect: non-scaling-stroke; fill: none; stroke: rgb(31, 119, 180); stroke-opacity: 1; stroke-width: 2px; opacity: 1;"/><path class="js-line" d="M349.96,55.9L349.99,61.48L354.88,57.19" style="vector-effect: non-scaling-stroke; fill: none; stroke: rgb(31, 119, 180); stroke-opacity: 1; stroke-width: 2px; opacity: 1;"/><path class="js-line" d="M372.88,57.84L372.49,63.41L377.69,59.32" style="vector-effect: non-scaling-stroke; fill: none; stroke: rgb(31, 119, 180); stroke-opacity: 1; stroke-width: 2px; opacity: 1;"/><path class="js-line" d="M68.6,216.44L67.78,210.9L63.53,215.53" style="vector-effect: non-scaling-stroke; fill: none; stroke: rgb(31, 119, 180); stroke-opacity: 1; stroke-width: 2px; opacity: 1;"/><path class="js-line" d="M65.2,188.72L64.46,183.17L60.14,187.77" style="vector-effect: non-scaling-stroke; fill: none; stroke: rgb(31, 119, 180); stroke-opacity: 1; stroke-width: 2px; opacity: 1;"/><path class="js-line" d="M133.55,254.94L135.72,249.59L129.35,252.67" style="vector-effect: non-scaling-stroke; fill: none; stroke: rgb(31, 119, 180); stroke-opacity: 1; stroke-width: 2px; opacity: 1;"/><path class="js-line" d="M99.16,214.89L99.91,209.33L94.45,213.24" style="vector-effect: non-scaling-stroke; fill: none; stroke: rgb(31, 119, 180); stroke-opacity: 1; stroke-width: 2px; opacity: 1;"/><path class="js-line" d="M215.62,124.06L217.43,129.48L220.81,124.48" style="vector-effect: non-scaling-stroke; fill: none; stroke: rgb(31, 119, 180); stroke-opacity: 1; stroke-width: 2px; opacity: 1;"/><path class="js-line" d="M283.13,169.39L280.54,174.64L287.14,171.84" style="vector-effect: non-scaling-stroke; fill: none; stroke: rgb(31, 119, 180); stroke-opacity: 1; stroke-width: 2px; opacity: 1;"/><g class="points"/></g><g class="trace scatter trace8a0cbd" style="stroke-miterlimit: 2; opacity: 1;"><g class="points"><path class="point" transform="translate(207.97,203.18)" d="M7,0A7,7 0 1,1 0,-7A7,7 0 0,1 7,0Z" style="opacity: 1; stroke-width: 0px; fill: rgb(255, 127, 14); fill-opacity: 1;"/></g></g><g class="trace scatter trace9f5c6c" style="stroke-miterlimit: 2; opacity: 1;"><g class="points"><path class="point" transform="translate(35.75,127.68)" d="M7,0A7,7 0 1,1 0,-7A7,7 0 0,1 7,0Z" style="opacity: 1; stroke-width: 0px; fill: rgb(44, 160, 44); fill-opacity: 1;"/></g></g><g class="trace scatter trace06e171" style="stroke-miterlimit: 2; opacity: 1;"><g class="points"><path class="point" transform="translate(226.88,295.25)" d="M7,0A7,7 0 1,1 0,-7A7,7 0 0,1 7,0Z" style="opacity: 1; stroke-width: 0px; fill: rgb(214, 39, 40); fill-opacity: 1;"/></g></g><g class="trace scatter tracebb987a" style="stroke-miterlimit: 2; opacity: 1;"><g class="points"><path class="point" transform="translate(35.75,295.25)" d="M7,0A7,7 0 1,1 0,-7A7,7 0 0,1 7,0Z" style="opacity: 1; stroke-width: 0px; fill: rgb(148, 103, 189); fill-opacity: 1;"/></g></g></g></g><g class="overplot"/><path class="xlines-above crisp" transform="translate(80,100)" d="M-1,320.5H418" style="fill: none; stroke-width: 1px; stroke: rgb(0, 0, 0); stroke-opacity: 0;"/><path class="ylines-above crisp" transform="translate(80,100)" d="M-0.5,0V320" style="fill: none; stroke-width: 1px; stroke: rgb(0, 0, 0); stroke-opacity: 0;"/><g class="overlines-above"/><g class="xaxislayer-above" transform="translate(80,100)"><path class="xtick ticks crisp" d="M0,321v5" transform="translate(35.75,0)" style="stroke: rgb(68, 68, 68); stroke-opacity: 1; stroke-width: 1px;"/><path class="xtick ticks crisp" d="M0,321v5" transform="translate(112.2,0)" style="stroke: rgb(68, 68, 68); stroke-opacity: 1; stroke-width: 1px;"/><path class="xtick ticks crisp" d="M0,321v5" transform="translate(188.65,0)" style="stroke: rgb(68, 68, 68); stroke-opacity: 1; stroke-width: 1px;"/><path class="xtick ticks crisp" d="M0,321v5" transform="translate(265.1,0)" style="stroke: rgb(68, 68, 68); stroke-opacity: 1; stroke-width: 1px;"/><path class="xtick ticks crisp" d="M0,321v5" transform="translate(341.55,0)" style="stroke: rgb(68, 68, 68); stroke-opacity: 1; stroke-width: 1px;"/><path class="xtick ticks crisp" d="M0,321v5" transform="translate(418,0)" style="stroke: rgb(68, 68, 68); stroke-opacity: 1; stroke-width: 1px;"/><g class="xtick"><text text-anchor="middle" x="0" y="342.8" transform="translate(35.75,0)" style="font-family: 'Open Sans', verdana, arial, sans-serif; font-size: 14px; fill: rgb(68, 68, 68); fill-opacity: 1; white-space: pre;">0</text></g><g class="xtick"><text text-anchor="middle" x="0" y="342.8" transform="translate(112.2,0)" style="font-family: 'Open Sans', verdana, arial, sans-serif; font-size: 14px; fill: rgb(68, 68, 68); fill-opacity: 1; white-space: pre;">20</text></g><g class="xtick"><text text-anchor="middle" x="0" y="342.8" transform="translate(188.65,0)" style="font-family: 'Open Sans', verdana, arial, sans-serif; font-size: 14px; fill: rgb(68, 68, 68); fill-opacity: 1; white-space: pre;">40</text></g><g class="xtick"><text text-anchor="middle" x="0" y="342.8" transform="translate(265.1,0)" style="font-family: 'Open Sans', verdana, arial, sans-serif; font-size: 14px; fill: rgb(68, 68, 68); fill-opacity: 1; white-space: pre;">60</text></g><g class="xtick"><text text-anchor="middle" x="0" y="342.8" transform="translate(341.55,0)" style="font-family: 'Open Sans', verdana, arial, sans-serif; font-size: 14px; fill: rgb(68, 68, 68); fill-opacity: 1; white-space: pre;">80</text></g><g class="xtick"><text text-anchor="middle" x="0" y="342.8" transform="translate(418,0)" style="font-family: 'Open Sans', verdana, arial, sans-serif; font-size: 14px; fill: rgb(68, 68, 68); fill-opacity: 1; white-space: pre;">100</text></g></g><g class="yaxislayer-above" transform="translate(80,100)"><path class="ytick ticks crisp" d="M0,0h5" transform="translate(0,295.25)" style="stroke: rgb(68, 68, 68); stroke-opacity: 1; stroke-width: 1px;"/><path class="ytick ticks crisp" d="M0,0h5" transform="translate(0,239.39)" style="stroke: rgb(68, 68, 68); stroke-opacity: 1; stroke-width: 1px;"/><path class="ytick ticks crisp" d="M0,0h5" transform="translate(0,183.54)" style="stroke: rgb(68, 68, 68); stroke-opacity: 1; stroke-width: 1px;"/><path class="ytick ticks crisp" d="M0,0h5" transform="translate(0,127.68)" style="stroke: rgb(68, 68, 68); stroke-opacity: 1; stroke-width: 1px;"/><path class="ytick ticks crisp" d="M0,0h5" transform="translate(0,71.83)" style="stroke: rgb(68, 68, 68); stroke-opacity: 1; stroke-width: 1px;"/><path class="ytick ticks crisp" d="M0,0h5" transform="translate(0,15.97)" style="stroke: rgb(68, 68, 68); stroke-opacity: 1; stroke-width: 1px;"/><g class="ytick"><text text-anchor="end" x="-1" y="4.8999999999999995" transform="translate(0,295.25)" style="font-family: 'Open Sans', verdana, arial, sans-serif; font-size: 14px; fill: rgb(68, 68, 68); fill-opacity: 1; white-space: pre;">0</text></g><g class="ytick"><text text-anchor="end" x="-1" y="4.8999999999999995" transform="translate(0,239.39)" style="font-family: 'Open Sans', verdana, arial, sans-serif; font-size: 14px; fill: rgb(68, 68, 68); fill-opacity: 1; white-space: pre;">20</text></g><g class="ytick"><text text-anchor="end" x="-1" y="4.8999999999999995" transform="translate(0,183.54)" style="font-family: 'Open Sans', verdana, arial, sans-serif; font-size: 14px; fill: rgb(68, 68, 68); fill-opacity: 1; white-space: pre;">40</text></g><g class="ytick"><text text-anchor="end" x="-1" y="4.8999999999999995" transform="translate(0,127.68)" style="font-family: 'Open Sans', verdana, arial, sans-serif; font-size: 14px; fill: rgb(68, 68, 68); fill-opacity: 1; white-space: pre;">60</text></g><g class="ytick"><text text-anchor="end" x="-1" y="4.8999999999999995" transform="translate(0,71.83)" style="font-family: 'Open Sans', verdana, arial, sans-serif; font-size: 14px; fill: rgb(68, 68, 68); fill-opacity: 1; white-space: pre;">80</text></g><g class="ytick"><text text-anchor="end" x="-1" y="4.8999999999999995" transform="translate(0,15.97)" style="font-family: 'Open Sans', verdana, arial, sans-serif; font-size: 14px; fill: rgb(68, 68, 68); fill-opacity: 1; white-space: pre;">100</text></g></g><g class="overaxes-above"/></g></g><g class="ternarylayer"/><g class="geolayer"/><g class="layer-above"><g class="imagelayer"/><g class="shapelayer"/></g><g class="pielayer"/><g class="glimages"/><defs id="topdefs-1c45ad"><clipPath id="legend1c45ad"><rect width="182" height="168" x="0" y="0"/></clipPath></defs><g class="infolayer"><g class="g-gtitle"><text class="gtitle" x="350" y="50" text-anchor="middle" style="font-family: 'Open Sans', verdana, arial, sans-serif; font-size: 31px; fill: rgb(68, 68, 68); opacity: 1; font-weight: normal; white-space: pre;">Demo: 2x2 Phase Plane with Carry Capacity</text></g><g class="legend" pointer-events="all" transform="translate(506.36, 100)"><rect class="bg" shape-rendering="crispEdges" style="stroke: rgb(68, 68, 68); stroke-opacity: 1; fill: rgb(255, 255, 255); fill-opacity: 1; stroke-width: 0px;" width="182" height="168" x="0" y="0"/><g class="scrollbox" transform="translate(0, 0)" clip-path="url(#legend1c45ad)"><g class="groups"><g class="traces" transform="translate(0, 20.8)" style="opacity: 1;"><g class="layers" style="opacity: 1;"><g class="legendfill"/><g class="legendlines"><path class="js-line" d="M5,0h30" style="fill: none; stroke: rgb(31, 119, 180); stroke-opacity: 1; stroke-width: 2px;"/></g><g class="legendsymbols"><g class="legendpoints"/></g></g><text class="legendtext user-select-none" text-anchor="start" x="40" y="8.58" style="font-family: 'Open Sans', verdana, arial, sans-serif; font-size: 22px; fill: rgb(68, 68, 68); fill-opacity: 1; white-space: pre;">Streamline</text><rect class="legendtoggle" pointer-events="all" style="cursor: pointer; fill: rgb(0, 0, 0); fill-opacity: 0;" x="0" y="-15.8" width="222" height="31.6"/></g><g class="traces" transform="translate(0, 52.400000000000006)" style="opacity: 1;"><g class="layers" style="opacity: 1;"><g class="legendfill"/><g class="legendlines"/><g class="legendsymbols"><g class="legendpoints"><path class="scatterpts" transform="translate(20,0)" d="M7,0A7,7 0 1,1 0,-7A7,7 0 0,1 7,0Z" style="opacity: 1; stroke-width: 0px; fill: rgb(255, 127, 14); fill-opacity: 1;"/></g></g></g><text class="legendtext user-select-none" text-anchor="start" x="40" y="8.58" style="font-family: 'Open Sans', verdana, arial, sans-serif; font-size: 22px; fill: rgb(68, 68, 68); fill-opacity: 1; white-space: pre;">Equilibrium 1</text><rect class="legendtoggle" pointer-events="all" style="cursor: pointer; fill: rgb(0, 0, 0); fill-opacity: 0;" x="0" y="-15.8" width="222" height="31.6"/></g><g class="traces" transform="translate(0, 84)" style="opacity: 1;"><g class="layers" style="opacity: 1;"><g class="legendfill"/><g class="legendlines"/><g class="legendsymbols"><g class="legendpoints"><path class="scatterpts" transform="translate(20,0)" d="M7,0A7,7 0 1,1 0,-7A7,7 0 0,1 7,0Z" style="opacity: 1; stroke-width: 0px; fill: rgb(44, 160, 44); fill-opacity: 1;"/></g></g></g><text class="legendtext user-select-none" text-anchor="start" x="40" y="8.58" style="font-family: 'Open Sans', verdana, arial, sans-serif; font-size: 22px; fill: rgb(68, 68, 68); fill-opacity: 1; white-space: pre;">Equilibrium 2</text><rect class="legendtoggle" pointer-events="all" style="cursor: pointer; fill: rgb(0, 0, 0); fill-opacity: 0;" x="0" y="-15.8" width="222" height="31.6"/></g><g class="traces" transform="translate(0, 115.60000000000001)" style="opacity: 1;"><g class="layers" style="opacity: 1;"><g class="legendfill"/><g class="legendlines"/><g class="legendsymbols"><g class="legendpoints"><path class="scatterpts" transform="translate(20,0)" d="M7,0A7,7 0 1,1 0,-7A7,7 0 0,1 7,0Z" style="opacity: 1; stroke-width: 0px; fill: rgb(214, 39, 40); fill-opacity: 1;"/></g></g></g><text class="legendtext user-select-none" text-anchor="start" x="40" y="8.58" style="font-family: 'Open Sans', verdana, arial, sans-serif; font-size: 22px; fill: rgb(68, 68, 68); fill-opacity: 1; white-space: pre;">Equilibrium 3</text><rect class="legendtoggle" pointer-events="all" style="cursor: pointer; fill: rgb(0, 0, 0); fill-opacity: 0;" x="0" y="-15.8" width="222" height="31.6"/></g><g class="traces" transform="translate(0, 147.20000000000002)" style="opacity: 1;"><g class="layers" style="opacity: 1;"><g class="legendfill"/><g class="legendlines"/><g class="legendsymbols"><g class="legendpoints"><path class="scatterpts" transform="translate(20,0)" d="M7,0A7,7 0 1,1 0,-7A7,7 0 0,1 7,0Z" style="opacity: 1; stroke-width: 0px; fill: rgb(148, 103, 189); fill-opacity: 1;"/></g></g></g><text class="legendtext user-select-none" text-anchor="start" x="40" y="8.58" style="font-family: 'Open Sans', verdana, arial, sans-serif; font-size: 22px; fill: rgb(68, 68, 68); fill-opacity: 1; white-space: pre;">Equilibrium 4</text><rect class="legendtoggle" pointer-events="all" x="0" y="-15.8" width="222" height="31.6" style="cursor: pointer; fill: rgb(0, 0, 0); fill-opacity: 0;"/></g></g></g><rect class="scrollbar" rx="20" ry="2" width="0" height="0" style="fill: rgb(128, 139, 164); fill-opacity: 1;"/></g><g class="g-xtitle"><text class="xtitle" x="289" y="490" text-anchor="middle" style="font-family: 'Open Sans', verdana, arial, sans-serif; font-size: 20px; fill: rgb(68, 68, 68); opacity: 1; font-weight: normal; white-space: pre;">population size, N1</text></g><g class="g-ytitle"><text class="ytitle" transform="rotate(-90,30,260) translate(0, 0)" x="30" y="260" text-anchor="middle" style="font-family: 'Open Sans', verdana, arial, sans-serif; font-size: 20px; fill: rgb(68, 68, 68); opacity: 1; font-weight: normal; white-space: pre;">population size, N2</text></g></g></svg>