<svg class="main-svg" xmlns="http://www.w3.org/2000/svg" xmlns:xlink="http://www.w3.org/1999/xlink" width="700" height="500"><rect x="0" y="0" width="700" height="500" style="fill: rgb(255, 255, 255); fill-opacity: 1;"/><defs id="defs-6adc45"><g class="gradients"/><g class="clips"><clipPath class="axesclip" id="clip6adc45x"><rect x="80" y="0" width="418" height="500"/></clipPath><clipPath class="axesclip" id="clip6adc45y"><rect x="0" y="100" width="700" height="320"/></clipPath><clipPath class="axesclip" id="clip6adc45xy"><rect x="80" y="100" width="418" height="320"/></clipPath><clipPath class="plotclip" id="clip6adc45xyplot"><rect width="418" height="320"/></clipPath></g></defs><g class="bglayer"><rect class="bg" x="80" y="100" width="418" height="320" style="fill: rgb(255, 255, 255); fill-opacity: 1; stroke-width: 0px;"/></g><g class="layer-below"><g class="imagelayer"/><g class="shapelayer"/></g><g class="cartesianlayer"><g class="subplot xy"><g class="layer-subplot"><g class="shapelayer"/><g class="imagelayer"/></g><g class="gridlayer" transform="translate(80,100)"/><g class="overgrid"/><g class="zerolinelayer" transform="translate(80,100)"><path class="xzl zl crisp" d="M0,0v320" transform="translate(35.75,0)" style="stroke: rgb(68, 68, 68); stroke-opacity: 1; stroke-width: 1px;"/><path class="yzl zl crisp" d="M0,0h418" transform="translate(0,295.25)" style="stroke: rgb(68, 68, 68); stroke-opacity: 1; stroke-width: 1px;"/></g><g class="overzero"/><path class="xlines-below"/><path class="ylines-below"/><g class="overlines-below"/><g class="xaxislayer-below"/><g class="yaxislayer-below"/><g class="overaxes-below"/><g class="plot" transform="translate(80, 100)" clip-path="url(#clip6adc45xyplot)"><g class="imagelayer"/><g class="maplayer"/><g class="barlayer"/><g class="carpetlayer"/><g class="boxlayer"/><g class="scatterlayer"><g class="trace scatter trace2b494c" style="stroke-miterlimit: 2; opacity: 1;"><path class="js-line" d="M36.13,294.97L37.67,289.54L38.11,286.75L40.5,264.31L40.76,261.5L47.19,194.14L47.56,191.34L50.81,171.79L51.42,169.01L54.69,158.02L55.82,155.34L58.84,150.17L60.92,147.81L63.58,145.79L66.86,144.36L74.37,143.55L78.17,143.88L89.23,146.17L92.82,147.16L113.81,154.06L117.24,155.31L144.25,166L147.56,167.42L170.23,177.95L173.38,179.56L191.54,189.88L194.4,191.75L204.89,199.74L206.96,201.78L207.93,203.07L207.95,203.03" style="vector-effect: non-scaling-stroke; fill: none; stroke: rgb(31, 119, 180); stroke-opacity: 1; stroke-width: 2px; opacity: 1;"/><path class="js-line" d="M47.1,294.97L62.28,293.6L66.04,293.05L80.79,289.99L84.38,289L98.22,284.15L101.53,282.72L114.11,276.28L117.09,274.51L131.02,264.84L133.63,262.78L145.93,251.98L148.26,249.75L163.77,233.67L165.91,231.33L185.59,210.52L188,208.33L193.22,204.21" style="vector-effect: non-scaling-stroke; fill: none; stroke: rgb(31, 119, 180); stroke-opacity: 1; stroke-width: 2px; opacity: 1;"/><path class="js-line" d="M80.01,294.97L126.01,293.57L129.84,293.36L156.51,291.02L160.28,290.51L175.15,287.74L178.77,286.8L189.11,283.12L192.3,281.55L198.08,277.86L200.6,275.74L204.86,271.07L206.59,268.56L210.46,260.62L211.37,257.88L213.29,249.57L213.7,246.77L214.46,235.53L214.45,232.72L213.31,218.69L212.83,215.9L212.24,213.13" style="vector-effect: non-scaling-stroke; fill: none; stroke: rgb(31, 119, 180); stroke-opacity: 1; stroke-width: 2px; opacity: 1;"/><path class="js-line" d="M36.13,246.73L37.48,139.82L37.69,137.01L38.72,131.45L40.97,129.61L47.98,131.06L51.5,132.14L68.98,137.82" style="vector-effect: non-scaling-stroke; fill: none; stroke: rgb(31, 119, 180); stroke-opacity: 1; stroke-width: 2px; opacity: 1;"/><path class="js-line" d="M167.76,294.97L206.09,293.94L209.89,293.57L217.23,292.03L220.22,290.32L222.04,287.87L222.92,285.14L223.45,276.73L223.35,273.92L221.83,257.08L221.48,254.28L217.88,231.94L217.3,229.16" style="vector-effect: non-scaling-stroke; fill: none; stroke: rgb(31, 119, 180); stroke-opacity: 1; stroke-width: 2px; opacity: 1;"/><path class="js-line" d="M299.38,294.97L238,294.2L234.22,293.74L230.75,292.63L228.53,290.41" style="vector-effect: non-scaling-stroke; fill: none; stroke: rgb(31, 119, 180); stroke-opacity: 1; stroke-width: 2px; opacity: 1;"/><path class="js-line" d="M36.13,61.82L36.6,120.91" style="vector-effect: non-scaling-stroke; fill: none; stroke: rgb(31, 119, 180); stroke-opacity: 1; stroke-width: 2px; opacity: 1;"/><path class="js-line" d="M387.13,294.97L306.51,294.92" style="vector-effect: non-scaling-stroke; fill: none; stroke: rgb(31, 119, 180); stroke-opacity: 1; stroke-width: 2px; opacity: 1;"/><path class="js-line" d="M45.26,289.4L50.25,281.8L51.65,279.18L58.85,263.15L59.93,260.45L80.54,209.18L81.81,206.52L88.98,193.48L90.63,190.93L96.2,183.55L98.32,181.21L105.78,174.8L108.7,172.97L115.25,170.06L118.84,169.06L126.37,168.06" style="vector-effect: non-scaling-stroke; fill: none; stroke: rgb(31, 119, 180); stroke-opacity: 1; stroke-width: 2px; opacity: 1;"/><path class="js-line" d="M46.99,16L48.67,69.45L48.82,72.26L50.95,97.53L51.33,100.33L54.14,114.24L55.01,116.98L58.78,124.95L60.58,127.43L62.71,129.77" style="vector-effect: non-scaling-stroke; fill: none; stroke: rgb(31, 119, 180); stroke-opacity: 1; stroke-width: 2px; opacity: 1;"/><path class="js-line" d="M416.75,286.92L320.78,286.22L316.94,286.12L282.48,284.38L278.67,284.03L263.58,282L259.88,281.26L249.24,278.07L245.97,276.6L240.15,272.94L237.68,270.8L233.57,266.05L231.88,263.53L229.04,258.3" style="vector-effect: non-scaling-stroke; fill: none; stroke: rgb(31, 119, 180); stroke-opacity: 1; stroke-width: 2px; opacity: 1;"/><path class="js-line" d="M57.88,16L60.03,60.99L60.24,63.8L62.83,89.05L63.25,91.85L65.96,105.78L66.68,108.54L70.55,119.42L71.84,122.07L76.84,129.67L78.92,132.03L83.71,136.42" style="vector-effect: non-scaling-stroke; fill: none; stroke: rgb(31, 119, 180); stroke-opacity: 1; stroke-width: 2px; opacity: 1;"/><path class="js-line" d="M416.75,278.83L343.81,278.72L339.97,278.66L301.64,277.2L297.82,276.94L275.05,274.44L271.31,273.8L260.33,271.27L256.8,270.17L246.92,265.86L243.97,264.07L241.22,262.1" style="vector-effect: non-scaling-stroke; fill: none; stroke: rgb(31, 119, 180); stroke-opacity: 1; stroke-width: 2px; opacity: 1;"/><path class="js-line" d="M68.79,16L71.29,58.17L71.53,60.98L74.48,86.21L74.93,89L78.46,105.68L79.24,108.44L83.19,119.31L84.45,121.97L89.04,129.7L90.89,132.16L97.46,139.09L99.96,141.22L105.38,145.2" style="vector-effect: non-scaling-stroke; fill: none; stroke: rgb(31, 119, 180); stroke-opacity: 1; stroke-width: 2px; opacity: 1;"/><path class="js-line" d="M416.75,270.72L351.49,271.23L347.65,271.19L309.29,270.1L305.47,269.88L286.41,268.24" style="vector-effect: non-scaling-stroke; fill: none; stroke: rgb(31, 119, 180); stroke-opacity: 1; stroke-width: 2px; opacity: 1;"/><path class="js-line" d="M79.73,16L82.29,55.35L82.55,58.16L85.57,83.38L86.02,86.18L89.42,102.87L90.14,105.64L94.77,119.29L95.95,121.96L100.16,129.82L101.82,132.35L107.65,139.62L109.88,141.91L112.25,144.12" style="vector-effect: non-scaling-stroke; fill: none; stroke: rgb(31, 119, 180); stroke-opacity: 1; stroke-width: 2px; opacity: 1;"/><path class="js-line" d="M416.74,262.58L351.51,263.89L347.67,263.9L313.13,263.31L309.3,263.14L286.39,261.41L282.6,260.96L267.65,258.44L263.99,257.58L253.41,254.26L250.07,252.87L240.89,247.81L238.16,245.83L231.03,239.22L228.97,236.85" style="vector-effect: non-scaling-stroke; fill: none; stroke: rgb(31, 119, 180); stroke-opacity: 1; stroke-width: 2px; opacity: 1;"/><path class="js-line" d="M90.68,16L93.64,58.15L93.91,60.96L97.18,86.17L97.66,88.96L101.24,105.64L102,108.39L106.7,122.03L107.88,124.71L113.62,135.14L115.35,137.65" style="vector-effect: non-scaling-stroke; fill: none; stroke: rgb(31, 119, 180); stroke-opacity: 1; stroke-width: 2px; opacity: 1;"/><path class="js-line" d="M416.73,254.4L355.39,256.73L351.55,256.8L313.17,256.8L309.33,256.69L286.39,255.29L282.58,254.89L275.03,253.91" style="vector-effect: non-scaling-stroke; fill: none; stroke: rgb(31, 119, 180); stroke-opacity: 1; stroke-width: 2px; opacity: 1;"/><path class="js-line" d="M101.65,16L104.32,55.35L104.58,58.15L108.04,86.18L108.5,88.97L112.6,108.43L113.35,111.19L115.93,119.42" style="vector-effect: non-scaling-stroke; fill: none; stroke: rgb(31, 119, 180); stroke-opacity: 1; stroke-width: 2px; opacity: 1;"/><path class="js-line" d="M416.71,246.2L355.49,249.79L351.65,249.94L313.28,250.7L309.44,250.66L286.45,249.73L282.64,249.42L267.51,247.51L263.79,246.81L252.92,244.06" style="vector-effect: non-scaling-stroke; fill: none; stroke: rgb(31, 119, 180); stroke-opacity: 1; stroke-width: 2px; opacity: 1;"/><path class="js-line" d="M109.3,287.88L123.51,283.63L126.94,282.37L140.09,276.57L143.21,274.93L154.94,267.68L157.68,265.71L167.86,257.3L170.22,255.08L180.99,243.44L182.96,241.02L192,228.62L193.67,226.08L206.01,205.48" style="vector-effect: non-scaling-stroke; fill: none; stroke: rgb(31, 119, 180); stroke-opacity: 1; stroke-width: 2px; opacity: 1;"/><path class="js-line" d="M112.63,16L115.41,58.16L115.67,60.97L117.86,80.6" style="vector-effect: non-scaling-stroke; fill: none; stroke: rgb(31, 119, 180); stroke-opacity: 1; stroke-width: 2px; opacity: 1;"/><path class="js-line" d="M123.63,16L126.13,58.17L126.36,60.98L129.41,89.02L129.82,91.82L133.36,111.35L133.99,114.12L137.87,127.9L138.82,130.62L143.31,141.38L144.64,144.02L150.96,154.27L152.81,156.74L156.84,161.53" style="vector-effect: non-scaling-stroke; fill: none; stroke: rgb(31, 119, 180); stroke-opacity: 1; stroke-width: 2px; opacity: 1;"/><path class="js-line" d="M416.64,229.72L359.72,236.1L355.91,236.46L317.73,239.32L313.9,239.51L287.04,239.99L283.2,239.91L264.12,238.51L260.35,237.98L249.28,235.67L245.72,234.63L235.69,230.51L232.64,228.81L224.54,222.83L222.19,220.62L217.93,215.95" style="vector-effect: non-scaling-stroke; fill: none; stroke: rgb(31, 119, 180); stroke-opacity: 1; stroke-width: 2px; opacity: 1;"/><path class="js-line" d="M134.64,16L136.95,60.99L137.16,63.8L138.64,80.65" style="vector-effect: non-scaling-stroke; fill: none; stroke: rgb(31, 119, 180); stroke-opacity: 1; stroke-width: 2px; opacity: 1;"/><path class="js-line" d="M145.66,16L147.79,66.62L147.97,69.43L150.78,100.32L151.13,103.12L154.85,125.46L155.47,128.24L159.24,142.03L160.17,144.76L164.63,155.52L165.96,158.16L172.3,168.41L174.15,170.87L180.35,177.98" style="vector-effect: non-scaling-stroke; fill: none; stroke: rgb(31, 119, 180); stroke-opacity: 1; stroke-width: 2px; opacity: 1;"/><path class="js-line" d="M416.5,213.15L364.29,222.5L360.54,223.1L322.85,228.44L319.06,228.89L288.57,231.54L284.74,231.71L265.56,231.76L261.73,231.55L250.36,230.26" style="vector-effect: non-scaling-stroke; fill: none; stroke: rgb(31, 119, 180); stroke-opacity: 1; stroke-width: 2px; opacity: 1;"/><path class="js-line" d="M156.7,16L158.11,66.64L158.24,69.45L160.08,97.55" style="vector-effect: non-scaling-stroke; fill: none; stroke: rgb(31, 119, 180); stroke-opacity: 1; stroke-width: 2px; opacity: 1;"/><path class="js-line" d="M167.74,16L168.69,77.9L168.79,80.71L170.53,111.64L170.77,114.44L173.43,136.87L173.9,139.66L176.84,153.56L177.59,156.32L181.3,167.24L182.45,169.92" style="vector-effect: non-scaling-stroke; fill: none; stroke: rgb(31, 119, 180); stroke-opacity: 1; stroke-width: 2px; opacity: 1;"/><path class="js-line" d="M416.26,196.53L372.85,207.82L369.2,208.7L328.76,217.59L325.05,218.31L295.1,223.28L291.32,223.78L268.47,225.83L264.64,225.96L249.31,225.53L245.51,225.1L234.47,222.76L231.01,221.57" style="vector-effect: non-scaling-stroke; fill: none; stroke: rgb(31, 119, 180); stroke-opacity: 1; stroke-width: 2px; opacity: 1;"/><path class="js-line" d="M178.79,16L178.75,89.16L178.8,91.97L180.4,128.53" style="vector-effect: non-scaling-stroke; fill: none; stroke: rgb(31, 119, 180); stroke-opacity: 1; stroke-width: 2px; opacity: 1;"/><path class="js-line" d="M189.85,16L188.18,100.41L188.17,103.22L188.86,139.79L189.01,142.6L190.82,162.25L191.23,165.05L193.49,176.18" style="vector-effect: non-scaling-stroke; fill: none; stroke: rgb(31, 119, 180); stroke-opacity: 1; stroke-width: 2px; opacity: 1;"/><path class="js-line" d="M415.93,179.89L377.87,193.3L374.37,194.45L338.97,205.34L335.39,206.35L320.98,210.23" style="vector-effect: non-scaling-stroke; fill: none; stroke: rgb(31, 119, 180); stroke-opacity: 1; stroke-width: 2px; opacity: 1;"/><path class="js-line" d="M200.91,16L196.2,139.76L196.18,142.57L196.68,165.08L196.87,167.89L198.61,181.89L199.2,184.67" style="vector-effect: non-scaling-stroke; fill: none; stroke: rgb(31, 119, 180); stroke-opacity: 1; stroke-width: 2px; opacity: 1;"/><path class="js-line" d="M211.98,16.01L206.25,100.32" style="vector-effect: non-scaling-stroke; fill: none; stroke: rgb(31, 119, 180); stroke-opacity: 1; stroke-width: 2px; opacity: 1;"/><path class="js-line" d="M415.51,163.28L379.62,179.58L376.3,180.99L342.56,194.41L339.13,195.67L321.81,201.73" style="vector-effect: non-scaling-stroke; fill: none; stroke: rgb(31, 119, 180); stroke-opacity: 1; stroke-width: 2px; opacity: 1;"/><path class="js-line" d="M223.06,16.01L217.22,80.59" style="vector-effect: non-scaling-stroke; fill: none; stroke: rgb(31, 119, 180); stroke-opacity: 1; stroke-width: 2px; opacity: 1;"/><path class="js-line" d="M418,144.93L387.81,162.31L384.73,163.99L353.2,180.03L349.98,181.56L323.7,193.2" style="vector-effect: non-scaling-stroke; fill: none; stroke: rgb(31, 119, 180); stroke-opacity: 1; stroke-width: 2px; opacity: 1;"/><path class="js-line" d="M245.23,16.02L238.38,66.42L237.95,69.22L230.8,111.1L230.27,113.88L223.14,147.24L222.47,150.01L215.15,177.63L214.34,180.38L210.16,194.11" style="vector-effect: non-scaling-stroke; fill: none; stroke: rgb(31, 119, 180); stroke-opacity: 1; stroke-width: 2px; opacity: 1;"/><path class="js-line" d="M417.24,128.23L392.34,145.79L389.51,147.68L363.31,164.19L360.32,165.96L354.31,169.45" style="vector-effect: non-scaling-stroke; fill: none; stroke: rgb(31, 119, 180); stroke-opacity: 1; stroke-width: 2px; opacity: 1;"/><path class="js-line" d="M267.42,16.04L259.19,60.66L258.62,63.44L250.4,99.52L249.7,102.28L241.17,132.6L240.31,135.34L231.72,159.87L230.66,162.57L222.45,181.32L221.14,183.96L218.38,189.22" style="vector-effect: non-scaling-stroke; fill: none; stroke: rgb(31, 119, 180); stroke-opacity: 1; stroke-width: 2px; opacity: 1;"/><path class="js-line" d="M289.62,16.07L280.52,54.89L279.81,57.66L270.46,90.72L269.61,93.46L260.3,120.76L259.28,123.47L249.23,147.7L248,150.36L240.04,166.21" style="vector-effect: non-scaling-stroke; fill: none; stroke: rgb(31, 119, 180); stroke-opacity: 1; stroke-width: 2px; opacity: 1;"/><path class="js-line" d="M416.13,103.39L394.52,123.15L392.03,125.29L371.58,142.08L368.94,144.13L344.43,161.97L341.62,163.88L318.38,178.6L315.39,180.36L293.79,192.07L290.61,193.64L270.94,202.42L267.55,203.75L250.05,209.49L246.41,210.4L235.21,212.29L231.39,212.53" style="vector-effect: non-scaling-stroke; fill: none; stroke: rgb(31, 119, 180); stroke-opacity: 1; stroke-width: 2px; opacity: 1;"/><path class="js-line" d="M311.84,16.11L301.55,51.9L300.69,54.64L290.48,84.67L289.48,87.39L278.58,114.37L277.4,117.05L267.21,138.28L265.83,140.9L255.46,159.07L253.85,161.63L250.55,166.71" style="vector-effect: non-scaling-stroke; fill: none; stroke: rgb(31, 119, 180); stroke-opacity: 1; stroke-width: 2px; opacity: 1;"/><path class="js-line" d="M417.13,76.36L398.64,97.75L396.51,100.09L376.54,120.76L374.23,123.01L355.12,140.62L352.64,142.77L332.1,159.5L329.44,161.53L307.32,177.14L304.44,179L292.69,186.25" style="vector-effect: non-scaling-stroke; fill: none; stroke: rgb(31, 119, 180); stroke-opacity: 1; stroke-width: 2px; opacity: 1;"/><path class="js-line" d="M334.05,16.15L323.85,46.18L322.86,48.9L311.14,78.64L310,81.32L298.97,105.32L297.66,107.97L284.97,131.52L283.45,134.1L272.1,151.95L270.37,154.46L261.21,166.83" style="vector-effect: non-scaling-stroke; fill: none; stroke: rgb(31, 119, 180); stroke-opacity: 1; stroke-width: 2px; opacity: 1;"/><path class="js-line" d="M356.28,16.2L344.46,45.92L343.32,48.61L329.87,77.94L328.56,80.59L316.04,104.19L314.56,106.78L301.99,127.32L300.32,129.86L286.08,149.8L284.18,152.24L272.12,166.62" style="vector-effect: non-scaling-stroke; fill: none; stroke: rgb(31, 119, 180); stroke-opacity: 1; stroke-width: 2px; opacity: 1;"/><path class="js-line" d="M417.7,49.26L400.08,74.25L398.23,76.72L378.91,101.03L376.89,103.42L362.21,119.92" style="vector-effect: non-scaling-stroke; fill: none; stroke: rgb(31, 119, 180); stroke-opacity: 1; stroke-width: 2px; opacity: 1;"/><path class="js-line" d="M378.5,16.27L365.08,45.61L363.79,48.26L350.11,74.55L348.66,77.16L333.26,102.93L331.62,105.47L317.79,125.57L315.96,128.04L302.53,145.1L300.51,147.49L285.58,163.87L283.33,166.15" style="vector-effect: non-scaling-stroke; fill: none; stroke: rgb(31, 119, 180); stroke-opacity: 1; stroke-width: 2px; opacity: 1;"/><path class="js-line" d="M417.99,22.14L402.87,48L401.28,50.57L384.65,75.92L382.91,78.43L364.54,103.14L362.6,105.57" style="vector-effect: non-scaling-stroke; fill: none; stroke: rgb(31, 119, 180); stroke-opacity: 1; stroke-width: 2px; opacity: 1;"/><path class="js-line" d="M400.72,16.34L384.29,47.88L382.84,50.49L367.54,76.29L365.92,78.84L350.65,101.56L348.87,104.05L331.92,126.11L329.93,128.52L317.53,142.75" style="vector-effect: non-scaling-stroke; fill: none; stroke: rgb(31, 119, 180); stroke-opacity: 1; stroke-width: 2px; opacity: 1;"/><path class="js-line" d="M53.08,290.95L61.7,285.39L64.27,283.3L73.43,274.28L75.51,271.91L86.99,257.28L88.78,254.79L119.3,212.52L121.31,210.13L130.05,200.87L132.45,198.68L140.36,192.56L143.29,190.74L149.66,187.6L153.1,186.37L160.44,184.75L164.24,184.43L171.88,184.77" style="vector-effect: non-scaling-stroke; fill: none; stroke: rgb(31, 119, 180); stroke-opacity: 1; stroke-width: 2px; opacity: 1;"/><path class="js-line" d="M55.13,249.74L66,211.16L66.89,208.43L73.01,192.15L74.2,189.48L79.81,179.01L81.49,176.48L87.58,169.33L90.06,167.18L95.89,163.55L99.24,162.18L106.57,160.59" style="vector-effect: non-scaling-stroke; fill: none; stroke: rgb(31, 119, 180); stroke-opacity: 1; stroke-width: 2px; opacity: 1;"/><path class="js-line" d="M153.49,280.32L166.19,274.03L169.14,272.22L177.33,266.29L179.83,264.16L188.69,254.98L190.62,252.55L197.33,242.43L198.77,239.82L203.63,229.15" style="vector-effect: non-scaling-stroke; fill: none; stroke: rgb(31, 119, 180); stroke-opacity: 1; stroke-width: 2px; opacity: 1;"/><path class="js-line" d="M55.57,217.64L60.93,195.48L61.73,192.73L66.46,179.09L67.61,176.41L71.78,168.55L73.49,166.03L77.62,161.29L80.15,159.18L86.31,155.87L89.88,154.85L93.63,154.28" style="vector-effect: non-scaling-stroke; fill: none; stroke: rgb(31, 119, 180); stroke-opacity: 1; stroke-width: 2px; opacity: 1;"/><path class="js-line" d="M67.56,265.41L81.61,239.23L82.99,236.6L96.14,213.18L97.75,210.63L106.63,198.16L108.63,195.76L115.29,188.88L117.78,186.74L126.28,181.07L129.5,179.54L136.49,177.25L140.21,176.54L147.83,176.06" style="vector-effect: non-scaling-stroke; fill: none; stroke: rgb(31, 119, 180); stroke-opacity: 1; stroke-width: 2px; opacity: 1;"/><path class="js-line" d="M78.1,281.27L88.55,273.03L90.98,270.85L102.33,259.51L104.48,257.18L122.92,235.77L124.94,233.37L141.71,214.52L143.96,212.24L153.65,203.52L156.31,201.48L165.07,196.03L168.32,194.53L175.36,192.32L179.1,191.74L182.92,191.59" style="vector-effect: non-scaling-stroke; fill: none; stroke: rgb(31, 119, 180); stroke-opacity: 1; stroke-width: 2px; opacity: 1;"/><path class="js-line" d="M111.9,265.76L126.17,252.51L128.42,250.23L168.47,208.98L171.02,206.88L179.4,201.1L182.52,199.47L189.46,197.12L193.23,196.67" style="vector-effect: non-scaling-stroke; fill: none; stroke: rgb(31, 119, 180); stroke-opacity: 1; stroke-width: 2px; opacity: 1;"/><path class="js-line" d="M358.58,121.5L340.69,139.8L338.36,142.03L321.42,157.32L318.91,159.45L300.61,173.87L297.89,175.86L295.14,177.82" style="vector-effect: non-scaling-stroke; fill: none; stroke: rgb(31, 119, 180); stroke-opacity: 1; stroke-width: 2px; opacity: 1;"/><path class="js-line" d="M275.77,170.91L261.27,184.02L258.71,186.12L245.09,196.02L242.18,197.86L232.93,202.88L229.63,204.32L222.6,206.54L218.85,207.07" style="vector-effect: non-scaling-stroke; fill: none; stroke: rgb(31, 119, 180); stroke-opacity: 1; stroke-width: 2px; opacity: 1;"/><path class="js-line" d="M211.91,107.26L206.21,163.38" style="vector-effect: non-scaling-stroke; fill: none; stroke: rgb(31, 119, 180); stroke-opacity: 1; stroke-width: 2px; opacity: 1;"/><path class="js-line" d="M102.75,152.31L110.36,152.83L104.99,148.85" style="vector-effect: non-scaling-stroke; fill: none; stroke: rgb(31, 119, 180); stroke-opacity: 1; stroke-width: 2px; opacity: 1;"/><path class="js-line" d="M106.77,282.63L111.06,277.99L103.71,279.52" style="vector-effect: non-scaling-stroke; fill: none; stroke: rgb(31, 119, 180); stroke-opacity: 1; stroke-width: 2px; opacity: 1;"/><path class="js-line" d="M145.99,294.13L152.72,291.48L145.24,290.34" style="vector-effect: non-scaling-stroke; fill: none; stroke: rgb(31, 119, 180); stroke-opacity: 1; stroke-width: 2px; opacity: 1;"/><path class="js-line" d="M38.99,204.17L36.41,198.9L33.76,204.15" style="vector-effect: non-scaling-stroke; fill: none; stroke: rgb(31, 119, 180); stroke-opacity: 1; stroke-width: 2px; opacity: 1;"/><path class="js-line" d="M207.15,295.95L213.65,293L206.09,292.2" style="vector-effect: non-scaling-stroke; fill: none; stroke: rgb(31, 119, 180); stroke-opacity: 1; stroke-width: 2px; opacity: 1;"/><path class="js-line" d="M279.7,293.01L272.51,294.89L279.67,296.84" style="vector-effect: non-scaling-stroke; fill: none; stroke: rgb(31, 119, 180); stroke-opacity: 1; stroke-width: 2px; opacity: 1;"/><path class="js-line" d="M33.55,76.26L36.17,81.52L38.77,76.26" style="vector-effect: non-scaling-stroke; fill: none; stroke: rgb(31, 119, 180); stroke-opacity: 1; stroke-width: 2px; opacity: 1;"/><path class="js-line" d="M367.44,293.05L360.26,294.96L367.44,296.88" style="vector-effect: non-scaling-stroke; fill: none; stroke: rgb(31, 119, 180); stroke-opacity: 1; stroke-width: 2px; opacity: 1;"/><path class="js-line" d="M66.78,249.79L66.19,244.21L61.75,248.76" style="vector-effect: non-scaling-stroke; fill: none; stroke: rgb(31, 119, 180); stroke-opacity: 1; stroke-width: 2px; opacity: 1;"/><path class="js-line" d="M45.24,50.18L48.04,55.39L50.46,50.07" style="vector-effect: non-scaling-stroke; fill: none; stroke: rgb(31, 119, 180); stroke-opacity: 1; stroke-width: 2px; opacity: 1;"/><path class="js-line" d="M354.86,284.85L347.65,286.69L354.79,288.68" style="vector-effect: non-scaling-stroke; fill: none; stroke: rgb(31, 119, 180); stroke-opacity: 1; stroke-width: 2px; opacity: 1;"/><path class="js-line" d="M56.89,53.02L59.84,58.18L62.11,52.84" style="vector-effect: non-scaling-stroke; fill: none; stroke: rgb(31, 119, 180); stroke-opacity: 1; stroke-width: 2px; opacity: 1;"/><path class="js-line" d="M362.53,277.02L355.32,278.87L362.47,280.85" style="vector-effect: non-scaling-stroke; fill: none; stroke: rgb(31, 119, 180); stroke-opacity: 1; stroke-width: 2px; opacity: 1;"/><path class="js-line" d="M68.48,55.85L71.53,60.98L73.69,55.61" style="vector-effect: non-scaling-stroke; fill: none; stroke: rgb(31, 119, 180); stroke-opacity: 1; stroke-width: 2px; opacity: 1;"/><path class="js-line" d="M377.85,269.31L370.68,271.25L377.88,273.14" style="vector-effect: non-scaling-stroke; fill: none; stroke: rgb(31, 119, 180); stroke-opacity: 1; stroke-width: 2px; opacity: 1;"/><path class="js-line" d="M79.71,55.85L82.82,60.97L84.92,55.58" style="vector-effect: non-scaling-stroke; fill: none; stroke: rgb(31, 119, 180); stroke-opacity: 1; stroke-width: 2px; opacity: 1;"/><path class="js-line" d="M354.84,261.97L347.67,263.9L354.85,265.8" style="vector-effect: non-scaling-stroke; fill: none; stroke: rgb(31, 119, 180); stroke-opacity: 1; stroke-width: 2px; opacity: 1;"/><path class="js-line" d="M90.54,53.04L93.64,58.15L95.75,52.77" style="vector-effect: non-scaling-stroke; fill: none; stroke: rgb(31, 119, 180); stroke-opacity: 1; stroke-width: 2px; opacity: 1;"/><path class="js-line" d="M373.97,254.3L366.9,256.43L374.18,258.12" style="vector-effect: non-scaling-stroke; fill: none; stroke: rgb(31, 119, 180); stroke-opacity: 1; stroke-width: 2px; opacity: 1;"/><path class="js-line" d="M101.02,47.41L104.08,52.54L106.24,47.17" style="vector-effect: non-scaling-stroke; fill: none; stroke: rgb(31, 119, 180); stroke-opacity: 1; stroke-width: 2px; opacity: 1;"/><path class="js-line" d="M366.32,247.38L359.32,249.62L366.65,251.2" style="vector-effect: non-scaling-stroke; fill: none; stroke: rgb(31, 119, 180); stroke-opacity: 1; stroke-width: 2px; opacity: 1;"/><path class="js-line" d="M151.44,272.66L154.94,267.68L147.9,269.85" style="vector-effect: non-scaling-stroke; fill: none; stroke: rgb(31, 119, 180); stroke-opacity: 1; stroke-width: 2px; opacity: 1;"/><path class="js-line" d="M110.95,33.33L113.9,38.5L116.17,33.15" style="vector-effect: non-scaling-stroke; fill: none; stroke: rgb(31, 119, 180); stroke-opacity: 1; stroke-width: 2px; opacity: 1;"/><path class="js-line" d="M123.77,61.47L126.86,66.59L128.99,61.22" style="vector-effect: non-scaling-stroke; fill: none; stroke: rgb(31, 119, 180); stroke-opacity: 1; stroke-width: 2px; opacity: 1;"/><path class="js-line" d="M351.31,234.96L344.48,237.47L351.91,238.76" style="vector-effect: non-scaling-stroke; fill: none; stroke: rgb(31, 119, 180); stroke-opacity: 1; stroke-width: 2px; opacity: 1;"/><path class="js-line" d="M132.73,33.31L135.59,38.5L137.95,33.17" style="vector-effect: non-scaling-stroke; fill: none; stroke: rgb(31, 119, 180); stroke-opacity: 1; stroke-width: 2px; opacity: 1;"/><path class="js-line" d="M145.2,67.09L148.17,72.25L150.42,66.89" style="vector-effect: non-scaling-stroke; fill: none; stroke: rgb(31, 119, 180); stroke-opacity: 1; stroke-width: 2px; opacity: 1;"/><path class="js-line" d="M366.99,220.1L360.54,223.1L368.11,223.85" style="vector-effect: non-scaling-stroke; fill: none; stroke: rgb(31, 119, 180); stroke-opacity: 1; stroke-width: 2px; opacity: 1;"/><path class="js-line" d="M154.54,38.91L157.3,44.14L159.76,38.84" style="vector-effect: non-scaling-stroke; fill: none; stroke: rgb(31, 119, 180); stroke-opacity: 1; stroke-width: 2px; opacity: 1;"/><path class="js-line" d="M165.68,64.24L168.43,69.46L170.9,64.16" style="vector-effect: non-scaling-stroke; fill: none; stroke: rgb(31, 119, 180); stroke-opacity: 1; stroke-width: 2px; opacity: 1;"/><path class="js-line" d="M360.65,208.72L354.57,212.11L362.2,212.38" style="vector-effect: non-scaling-stroke; fill: none; stroke: rgb(31, 119, 180); stroke-opacity: 1; stroke-width: 2px; opacity: 1;"/><path class="js-line" d="M175.9,50.13L178.51,55.39L181.13,50.13" style="vector-effect: non-scaling-stroke; fill: none; stroke: rgb(31, 119, 180); stroke-opacity: 1; stroke-width: 2px; opacity: 1;"/><path class="js-line" d="M186.05,64.17L188.57,69.46L191.28,64.22" style="vector-effect: non-scaling-stroke; fill: none; stroke: rgb(31, 119, 180); stroke-opacity: 1; stroke-width: 2px; opacity: 1;"/><path class="js-line" d="M390.25,186.99L384.85,190.95L392.46,190.46" style="vector-effect: non-scaling-stroke; fill: none; stroke: rgb(31, 119, 180); stroke-opacity: 1; stroke-width: 2px; opacity: 1;"/><path class="js-line" d="M196.03,66.93L198.42,72.25L201.26,67.05" style="vector-effect: non-scaling-stroke; fill: none; stroke: rgb(31, 119, 180); stroke-opacity: 1; stroke-width: 2px; opacity: 1;"/><path class="js-line" d="M207.92,38.76L210.18,44.11L213.14,38.95" style="vector-effect: non-scaling-stroke; fill: none; stroke: rgb(31, 119, 180); stroke-opacity: 1; stroke-width: 2px; opacity: 1;"/><path class="js-line" d="M387.77,173.82L382.93,178.15L390.43,177.11" style="vector-effect: non-scaling-stroke; fill: none; stroke: rgb(31, 119, 180); stroke-opacity: 1; stroke-width: 2px; opacity: 1;"/><path class="js-line" d="M219.02,33.1L221.17,38.48L224.23,33.35" style="vector-effect: non-scaling-stroke; fill: none; stroke: rgb(31, 119, 180); stroke-opacity: 1; stroke-width: 2px; opacity: 1;"/><path class="js-line" d="M391.99,157.62L387.81,162.31L395.13,160.69" style="vector-effect: non-scaling-stroke; fill: none; stroke: rgb(31, 119, 180); stroke-opacity: 1; stroke-width: 2px; opacity: 1;"/><path class="js-line" d="M234.87,72.16L236.64,77.6L240.06,72.6" style="vector-effect: non-scaling-stroke; fill: none; stroke: rgb(31, 119, 180); stroke-opacity: 1; stroke-width: 2px; opacity: 1;"/><path class="js-line" d="M398.64,138.89L395.17,143.88L402.2,141.69" style="vector-effect: non-scaling-stroke; fill: none; stroke: rgb(31, 119, 180); stroke-opacity: 1; stroke-width: 2px; opacity: 1;"/><path class="js-line" d="M254.8,69.06L256.25,74.56L259.96,69.66" style="vector-effect: non-scaling-stroke; fill: none; stroke: rgb(31, 119, 180); stroke-opacity: 1; stroke-width: 2px; opacity: 1;"/><path class="js-line" d="M275.71,63.17L276.86,68.7L280.83,63.92" style="vector-effect: non-scaling-stroke; fill: none; stroke: rgb(31, 119, 180); stroke-opacity: 1; stroke-width: 2px; opacity: 1;"/><path class="js-line" d="M366.74,143.07L363.62,148.19L370.49,145.74" style="vector-effect: non-scaling-stroke; fill: none; stroke: rgb(31, 119, 180); stroke-opacity: 1; stroke-width: 2px; opacity: 1;"/><path class="js-line" d="M295.4,62.76L296.23,68.33L300.48,63.67" style="vector-effect: non-scaling-stroke; fill: none; stroke: rgb(31, 119, 180); stroke-opacity: 1; stroke-width: 2px; opacity: 1;"/><path class="js-line" d="M383.2,110.85L381.1,116.23L387.43,113.09" style="vector-effect: non-scaling-stroke; fill: none; stroke: rgb(31, 119, 180); stroke-opacity: 1; stroke-width: 2px; opacity: 1;"/><path class="js-line" d="M315.09,62.28L315.59,67.86L320.11,63.35" style="vector-effect: non-scaling-stroke; fill: none; stroke: rgb(31, 119, 180); stroke-opacity: 1; stroke-width: 2px; opacity: 1;"/><path class="js-line" d="M333.57,64.38L333.71,69.98L338.51,65.63" style="vector-effect: non-scaling-stroke; fill: none; stroke: rgb(31, 119, 180); stroke-opacity: 1; stroke-width: 2px; opacity: 1;"/><path class="js-line" d="M401.2,68.72L400.08,74.25L405.79,70.54" style="vector-effect: non-scaling-stroke; fill: none; stroke: rgb(31, 119, 180); stroke-opacity: 1; stroke-width: 2px; opacity: 1;"/><path class="js-line" d="M353.15,63.73L352.96,69.33L358.02,65.13" style="vector-effect: non-scaling-stroke; fill: none; stroke: rgb(31, 119, 180); stroke-opacity: 1; stroke-width: 2px; opacity: 1;"/><path class="js-line" d="M401.86,44.98L401.28,50.57L406.62,46.56" style="vector-effect: non-scaling-stroke; fill: none; stroke: rgb(31, 119, 180); stroke-opacity: 1; stroke-width: 2px; opacity: 1;"/><path class="js-line" d="M377.31,55.27L376.89,60.86L382.12,56.78" style="vector-effect: non-scaling-stroke; fill: none; stroke: rgb(31, 119, 180); stroke-opacity: 1; stroke-width: 2px; opacity: 1;"/><path class="js-line" d="M89.55,257.85L90.56,252.3L84.92,256.08" style="vector-effect: non-scaling-stroke; fill: none; stroke: rgb(31, 119, 180); stroke-opacity: 1; stroke-width: 2px; opacity: 1;"/><path class="js-line" d="M65.3,222.2L64.29,216.65L60.19,221.38" style="vector-effect: non-scaling-stroke; fill: none; stroke: rgb(31, 119, 180); stroke-opacity: 1; stroke-width: 2px; opacity: 1;"/><path class="js-line" d="M174.34,271.45L177.33,266.29L170.52,268.84" style="vector-effect: non-scaling-stroke; fill: none; stroke: rgb(31, 119, 180); stroke-opacity: 1; stroke-width: 2px; opacity: 1;"/><path class="js-line" d="M62.8,198.27L61.73,192.73L57.68,197.48" style="vector-effect: non-scaling-stroke; fill: none; stroke: rgb(31, 119, 180); stroke-opacity: 1; stroke-width: 2px; opacity: 1;"/><path class="js-line" d="M86.98,234.34L87.19,228.74L82.12,232.93" style="vector-effect: non-scaling-stroke; fill: none; stroke: rgb(31, 119, 180); stroke-opacity: 1; stroke-width: 2px; opacity: 1;"/><path class="js-line" d="M111.18,253.2L112.81,247.73L106.77,251.15" style="vector-effect: non-scaling-stroke; fill: none; stroke: rgb(31, 119, 180); stroke-opacity: 1; stroke-width: 2px; opacity: 1;"/><path class="js-line" d="M135.31,246.43L137.22,241.01L131,244.26" style="vector-effect: non-scaling-stroke; fill: none; stroke: rgb(31, 119, 180); stroke-opacity: 1; stroke-width: 2px; opacity: 1;"/><path class="js-line" d="M340.64,136.69L338.36,142.03L344.79,139.02" style="vector-effect: non-scaling-stroke; fill: none; stroke: rgb(31, 119, 180); stroke-opacity: 1; stroke-width: 2px; opacity: 1;"/><path class="js-line" d="M261.56,180.92L258.71,186.12L265.45,183.48" style="vector-effect: non-scaling-stroke; fill: none; stroke: rgb(31, 119, 180); stroke-opacity: 1; stroke-width: 2px; opacity: 1;"/><path class="js-line" d="M207.85,121.51L209.92,126.9L213.06,121.8" style="vector-effect: non-scaling-stroke; fill: none; stroke: rgb(31, 119, 180); stroke-opacity: 1; stroke-width: 2px; opacity: 1;"/><g class="points"/></g><g class="trace scatter trace24782f" style="stroke-miterlimit: 2; opacity: 1;"><g class="points"><path class="point" transform="translate(208.03,202.86)" d="M7,0A7,7 0 1,1 0,-7A7,7 0 0,1 7,0Z" style="opacity: 1; stroke-width: 0px; fill: rgb(255, 127, 14); fill-opacity: 1;"/></g></g><g class="trace scatter trace129362" style="stroke-miterlimit: 2; opacity: 1;"><g class="points"><path class="point" transform="translate(35.75,127.1)" d="M7,0A7,7 0 1,1 0,-7A7,7 0 0,1 7,0Z" style="opacity: 1; stroke-width: 0px; fill: rgb(44, 160, 44); fill-opacity: 1;"/></g></g><g class="trace scatter trace096e27" style="stroke-miterlimit: 2; opacity: 1;"><g class="points"><path class="point" transform="translate(226.93,295.25)" d="M7,0A7,7 0 1,1 0,-7A7,7 0 0,1 7,0Z" style="opacity: 1; stroke-width: 0px; fill: rgb(214, 39, 40); fill-opacity: 1;"/></g></g><g class="trace scatter trace7813db" style="stroke-miterlimit: 2; opacity: 1;"><g class="points"><path class="point" transform="translate(35.75,295.25)" d="M7,0A7,7 0 1,1 0,-7A7,7 0 0,1 7,0Z" style="opacity: 1; stroke-width: 0px; fill: rgb(148, 103, 189); fill-opacity: 1;"/></g></g></g></g><g class="overplot"/><path class="xlines-above crisp" transform="translate(80,100)" d="M-1,320.5H418" style="fill: none; stroke-width: 1px; stroke: rgb(0, 0, 0); stroke-opacity: 0;"/><path class="ylines-above crisp" transform="translate(80,100)" d="M-0.5,0V320" style="fill: none; stroke-width: 1px; stroke: rgb(0, 0, 0); stroke-opacity: 0;"/><g class="overlines-above"/><g class="xaxislayer-above" transform="translate(80,100)"><path class="xtick ticks crisp" d="M0,321v5" transform="translate(35.75,0)" style="stroke: rgb(68, 68, 68); stroke-opacity: 1; stroke-width: 1px;"/><path class="xtick ticks crisp" d="M0,321v5" transform="translate(112.22,0)" style="stroke: rgb(68, 68, 68); stroke-opacity: 1; stroke-width: 1px;"/><path class="xtick ticks crisp" d="M0,321v5" transform="translate(188.7,0)" style="stroke: rgb(68, 68, 68); stroke-opacity: 1; stroke-width: 1px;"/><path class="xtick ticks crisp" d="M0,321v5" transform="translate(265.17,0)" style="stroke: rgb(68, 68, 68); stroke-opacity: 1; stroke-width: 1px;"/><path class="xtick ticks crisp" d="M0,321v5" transform="translate(341.64,0)" style="stroke: rgb(68, 68, 68); stroke-opacity: 1; stroke-width: 1px;"/><g class="xtick"><text text-anchor="middle" x="0" y="342.8" transform="translate(35.75,0)" style="font-family: 'Open Sans', verdana, arial, sans-serif; font-size: 14px; fill: rgb(68, 68, 68); fill-opacity: 1; white-space: pre;">0</text></g><g class="xtick"><text text-anchor="middle" x="0" y="342.8" transform="translate(112.22,0)" style="font-family: 'Open Sans', verdana, arial, sans-serif; font-size: 14px; fill: rgb(68, 68, 68); fill-opacity: 1; white-space: pre;">20</text></g><g class="xtick"><text text-anchor="middle" x="0" y="342.8" transform="translate(188.7,0)" style="font-family: 'Open Sans', verdana, arial, sans-serif; font-size: 14px; fill: rgb(68, 68, 68); fill-opacity: 1; white-space: pre;">40</text></g><g class="xtick"><text text-anchor="middle" x="0" y="342.8" transform="translate(265.17,0)" style="font-family: 'Open Sans', verdana, arial, sans-serif; font-size: 14px; fill: rgb(68, 68, 68); fill-opacity: 1; white-space: pre;">60</text></g><g class="xtick"><text text-anchor="middle" x="0" y="342.8" transform="translate(341.64,0)" style="font-family: 'Open Sans', verdana, arial, sans-serif; font-size: 14px; fill: rgb(68, 68, 68); fill-opacity: 1; white-space: pre;">80</text></g></g><g class="yaxislayer-above" transform="translate(80,100)"><path class="ytick ticks crisp" d="M0,0h5" transform="translate(0,295.25)" style="stroke: rgb(68, 68, 68); stroke-opacity: 1; stroke-width: 1px;"/><path class="ytick ticks crisp" d="M0,0h5" transform="translate(0,239.2)" style="stroke: rgb(68, 68, 68); stroke-opacity: 1; stroke-width: 1px;"/><path class="ytick ticks crisp" d="M0,0h5" transform="translate(0,183.15)" style="stroke: rgb(68, 68, 68); stroke-opacity: 1; stroke-width: 1px;"/><path class="ytick ticks crisp" d="M0,0h5" transform="translate(0,127.1)" style="stroke: rgb(68, 68, 68); stroke-opacity: 1; stroke-width: 1px;"/><path class="ytick ticks crisp" d="M0,0h5" transform="translate(0,71.05)" style="stroke: rgb(68, 68, 68); stroke-opacity: 1; stroke-width: 1px;"/><path class="ytick ticks crisp" d="M0,0h5" transform="translate(0,15)" style="stroke: rgb(68, 68, 68); stroke-opacity: 1; stroke-width: 1px;"/><g class="ytick"><text text-anchor="end" x="-1" y="4.8999999999999995" transform="translate(0,295.25)" style="font-family: 'Open Sans', verdana, arial, sans-serif; font-size: 14px; fill: rgb(68, 68, 68); fill-opacity: 1; white-space: pre;">0</text></g><g class="ytick"><text text-anchor="end" x="-1" y="4.8999999999999995" transform="translate(0,239.2)" style="font-family: 'Open Sans', verdana, arial, sans-serif; font-size: 14px; fill: rgb(68, 68, 68); fill-opacity: 1; white-space: pre;">20</text></g><g class="ytick"><text text-anchor="end" x="-1" y="4.8999999999999995" transform="translate(0,183.15)" style="font-family: 'Open Sans', verdana, arial, sans-serif; font-size: 14px; fill: rgb(68, 68, 68); fill-opacity: 1; white-space: pre;">40</text></g><g class="ytick"><text text-anchor="end" x="-1" y="4.8999999999999995" transform="translate(0,127.1)" style="font-family: 'Open Sans', verdana, arial, sans-serif; font-size: 14px; fill: rgb(68, 68, 68); fill-opacity: 1; white-space: pre;">60</text></g><g class="ytick"><text text-anchor="end" x="-1" y="4.8999999999999995" transform="translate(0,71.05)" style="font-family: 'Open Sans', verdana, arial, sans-serif; font-size: 14px; fill: rgb(68, 68, 68); fill-opacity: 1; white-space: pre;">80</text></g><g class="ytick"><text text-anchor="end" x="-1" y="4.8999999999999995" transform="translate(0,15)" style="font-family: 'Open Sans', verdana, arial, sans-serif; font-size: 14px; fill: rgb(68, 68, 68); fill-opacity: 1; white-space: pre;">100</text></g></g><g class="overaxes-above"/></g></g><g class="ternarylayer"/><g class="geolayer"/><g class="layer-above"><g class="imagelayer"/><g class="shapelayer"/></g><g class="pielayer"/><g class="glimages"/><defs id="topdefs-6adc45"><clipPath id="legend6adc45"><rect width="182" height="168" x="0" y="0"/></clipPath></defs><g class="infolayer"><g class="g-gtitle"><text class="gtitle" x="350" y="50" text-anchor="middle" style="font-family: 'Open Sans', verdana, arial, sans-serif; font-size: 31px; fill: rgb(68, 68, 68); opacity: 1; font-weight: normal; white-space: pre;">Demo: 2x2 Phase Plane with Carry Capacity</text></g><g class="legend" pointer-events="all" transform="translate(506.36, 100)"><rect class="bg" shape-rendering="crispEdges" width="182" height="168" x="0" y="0" style="stroke: rgb(68, 68, 68); stroke-opacity: 1; fill: rgb(255, 255, 255); fill-opacity: 1; stroke-width: 0px;"/><g class="scrollbox" transform="translate(0, 0)" clip-path="url(#legend6adc45)"><g class="groups"><g class="traces" transform="translate(0, 20.8)" style="opacity: 1;"><g class="layers" style="opacity: 1;"><g class="legendfill"/><g class="legendlines"><path class="js-line" d="M5,0h30" style="fill: none; stroke: rgb(31, 119, 180); stroke-opacity: 1; stroke-width: 2px;"/></g><g class="legendsymbols"><g class="legendpoints"/></g></g><text class="legendtext user-select-none" text-anchor="start" x="40" y="8.58" style="font-family: 'Open Sans', verdana, arial, sans-serif; font-size: 22px; fill: rgb(68, 68, 68); fill-opacity: 1; white-space: pre;">streamline</text><rect class="legendtoggle" pointer-events="all" x="0" y="-15.8" width="222" height="31.6" style="cursor: pointer; fill: rgb(0, 0, 0); fill-opacity: 0;"/></g><g class="traces" transform="translate(0, 52.400000000000006)" style="opacity: 1;"><g class="layers" style="opacity: 1;"><g class="legendfill"/><g class="legendlines"/><g class="legendsymbols"><g class="legendpoints"><path class="scatterpts" transform="translate(20,0)" d="M7,0A7,7 0 1,1 0,-7A7,7 0 0,1 7,0Z" style="opacity: 1; stroke-width: 0px; fill: rgb(255, 127, 14); fill-opacity: 1;"/></g></g></g><text class="legendtext user-select-none" text-anchor="start" x="40" y="8.58" style="font-family: 'Open Sans', verdana, arial, sans-serif; font-size: 22px; fill: rgb(68, 68, 68); fill-opacity: 1; white-space: pre;">Equilibrium 1</text><rect class="legendtoggle" pointer-events="all" x="0" y="-15.8" width="222" height="31.6" style="cursor: pointer; fill: rgb(0, 0, 0); fill-opacity: 0;"/></g><g class="traces" transform="translate(0, 84)" style="opacity: 1;"><g class="layers" style="opacity: 1;"><g class="legendfill"/><g class="legendlines"/><g class="legendsymbols"><g class="legendpoints"><path class="scatterpts" transform="translate(20,0)" d="M7,0A7,7 0 1,1 0,-7A7,7 0 0,1 7,0Z" style="opacity: 1; stroke-width: 0px; fill: rgb(44, 160, 44); fill-opacity: 1;"/></g></g></g><text class="legendtext user-select-none" text-anchor="start" x="40" y="8.58" style="font-family: 'Open Sans', verdana, arial, sans-serif; font-size: 22px; fill: rgb(68, 68, 68); fill-opacity: 1; white-space: pre;">Equilibrium 2</text><rect class="legendtoggle" pointer-events="all" x="0" y="-15.8" width="222" height="31.6" style="cursor: pointer; fill: rgb(0, 0, 0); fill-opacity: 0;"/></g><g class="traces" transform="translate(0, 115.60000000000001)" style="opacity: 1;"><g class="layers" style="opacity: 1;"><g class="legendfill"/><g class="legendlines"/><g class="legendsymbols"><g class="legendpoints"><path class="scatterpts" transform="translate(20,0)" d="M7,0A7,7 0 1,1 0,-7A7,7 0 0,1 7,0Z" style="opacity: 1; stroke-width: 0px; fill: rgb(214, 39, 40); fill-opacity: 1;"/></g></g></g><text class="legendtext user-select-none" text-anchor="start" x="40" y="8.58" style="font-family: 'Open Sans', verdana, arial, sans-serif; font-size: 22px; fill: rgb(68, 68, 68); fill-opacity: 1; white-space: pre;">Equilibrium 3</text><rect class="legendtoggle" pointer-events="all" x="0" y="-15.8" width="222" height="31.6" style="cursor: pointer; fill: rgb(0, 0, 0); fill-opacity: 0;"/></g><g class="traces" transform="translate(0, 147.20000000000002)" style="opacity: 1;"><g class="layers" style="opacity: 1;"><g class="legendfill"/><g class="legendlines"/><g class="legendsymbols"><g class="legendpoints"><path class="scatterpts" transform="translate(20,0)" d="M7,0A7,7 0 1,1 0,-7A7,7 0 0,1 7,0Z" style="opacity: 1; stroke-width: 0px; fill: rgb(148, 103, 189); fill-opacity: 1;"/></g></g></g><text class="legendtext user-select-none" text-anchor="start" x="40" y="8.58" style="font-family: 'Open Sans', verdana, arial, sans-serif; font-size: 22px; fill: rgb(68, 68, 68); fill-opacity: 1; white-space: pre;">Equilibrium 4</text><rect class="legendtoggle" pointer-events="all" x="0" y="-15.8" width="222" height="31.6" style="cursor: pointer; fill: rgb(0, 0, 0); fill-opacity: 0;"/></g></g></g><rect class="scrollbar" rx="20" ry="2" width="0" height="0" style="fill: rgb(128, 139, 164); fill-opacity: 1;"/></g><g class="g-xtitle"><text class="xtitle" x="289" y="490" text-anchor="middle" style="font-family: 'Open Sans', verdana, arial, sans-serif; font-size: 20px; fill: rgb(68, 68, 68); opacity: 1; font-weight: normal; white-space: pre;">population size, N1</text></g><g class="g-ytitle"><text class="ytitle" transform="rotate(-90,30,260) translate(0, 0)" x="30" y="260" text-anchor="middle" style="font-family: 'Open Sans', verdana, arial, sans-serif; font-size: 20px; fill: rgb(68, 68, 68); opacity: 1; font-weight: normal; white-space: pre;">population size, N2</text></g></g></svg>